<?xml version="1.0" encoding="utf-8"?>
<!-- Generator: Adobe Illustrator 15.0.2, SVG Export Plug-In . SVG Version: 6.00 Build 0)  -->
<!DOCTYPE svg PUBLIC "-//W3C//DTD SVG 1.1//EN" "http://www.w3.org/Graphics/SVG/1.1/DTD/svg11.dtd">
<svg version="1.1" xmlns="http://www.w3.org/2000/svg" xmlns:xlink="http://www.w3.org/1999/xlink" x="0px" y="0px" width="1188px"
	 height="1184px" viewBox="0 0 1188 1184" enable-background="new 0 0 1188 1184" xml:space="preserve">
<g id="Layer_1">
</g>
<g id="Layer_2">
	<g>
		<path fill="#640A6E" d="M489.213,321.605c6.977,0,11.787-5.508,11.787-13.035v-12.484c0-4.59-2.24-8.445-8.298-6.977l-4.333,1.102
			c-6.059,1.469-13.439,10.648-13.439,18.176C474.93,317.566,481.319,321.605,489.213,321.605z"/>
		<path fill="#640A6E" d="M671.848,280h17.441c2.754,0,3.711-3.191,3.711-5.762v-2.387c0-5.508-3.637-12.484-13.367-12.484
			c-10.098,0-12.633,8.812-12.633,12.668v2.938C667,277.359,669.277,280,671.848,280z"/>
		<path fill="#640A6E" d="M838,426.13v-9.486c0-3.06-1.715-5.631-4.469-5.631c-2.57,0-4.531,1.469-4.531,4.958v9.67
			c0,3.182,1.043,5.508,5.203,5.508C836.529,431.148,838,429.435,838,426.13z"/>
		<path fill="#640A6E" d="M835.092,502.443c-7.711,0-13.092,4.406-13.092,14.871v29.008c0,9.547,2.627,16.523,15.111,16.523
			c6.977,0,10.889-5.141,10.889-15.055v-28.457C848,510.154,843.354,502.443,835.092,502.443z"/>
		<path fill="#640A6E" d="M1114.666,688.26c-62.203-25.23-58.064-177.926-1.498-201.833c18.546-7.885,33.726-20.435,44.633-35.75
			c-7.521-51.762-45.415-129.695-67.864-165.06c-19.202-3.301-39.508-1.333-58.776,6.819
			c-61.706,26.121-169.688-77.633-143.737-141.654c8.101-20.004,8.291-45.455,5.596-60.679
			c-30.62-20.986-105.287-53.365-162.154-66.155c-13.511,7.495-30.425,27.544-38.54,47.688
			c-27.465,67.699-177.335,59.427-202.349,0.276c-8.352-19.759-25.816-39.368-38.661-46.692
			c-38.631,6.658-125.362,43.521-161.448,66.531c-0.125,19.458-2.45,41.802,6.188,62.183
			c24.999,59.156-76.491,171.207-142.34,144.504c-21.663-8.787-45.395-9.99-65.554-4.479
			c-20.15,33.035-55.524,122.356-62.403,159.313c3.256,10.711,27.98,31.888,48.811,40.33c89.626,36.361,73.475,172.41,1.493,202.85
			c-20.335,8.606-38.476,21.803-47.624,40.153c6.803,37.499,42.298,122.501,67.428,160.001c18.902,4.633,41.797,2.469,62.198-6.173
			c64.286-27.204,174.138,69.187,144.469,142.36c-7.715,19.058-7.375,40.139-6.518,60.88
			c42.759,24.784,121.063,61.901,166.342,66.381c16.342-11.724,27.735-29.478,35.274-48.085
			c25.977-64.057,175.14-67.007,202.323-2.73c7.601,17.971,19.163,35.57,33.837,46.557c49.071-7.654,138.162-43.926,170.03-69.762
			c3.777-21.293-2.069-40.194-9.939-58.842c-29.393-69.416,72.132-171.983,141.623-143.783c19.033,7.705,40.701,8.588,59.317,6.328
			c20.696-37.549,55.649-104.856,67.423-162.98C1148.692,706.751,1134.76,696.416,1114.666,688.26z M740,251.473
			c0-2.387,0.713-5.508,4.018-5.508c2.02,0,3.387,1.469,4.488,2.57l13.351,13.402l3.83-5.031
			c4.957-6.242,11.541-10.906,17.049-10.906h4.773c4.957,0,9.18,4.543,9.18,9.5s-4.223,9.5-9.18,9.5h-6.977
			c-6.242,0-11.194,1.957-14.499,5.262L762,274.238v49.02c0,6.059-4.941,11.016-11,11.016s-11-4.957-11-11.016V251.473z
			 M719.246,491.795l9.547,9.547l5.691-4.957c6.242-5.324,11.508-8.078,19.402-8.078c17.625,0,27.113,12.668,27.113,29.742v48.469
			c0,6.059-4.941,11.016-11,11.016s-11-4.957-11-11.016v-48.469c0-9.18-1.426-15.605-9.32-15.605c-1.652,0-8.564,4.039-11.502,6.426
			L732,513.826v52.691c0,6.059-4.941,11.016-11,11.016s-11-4.957-11-11.016v-71.785c0-2.387,1.135-5.508,4.807-5.508
			C716.643,489.225,718.512,491.061,719.246,491.795z M737.316,703.524c-5.74-0.581-8.997-3.638-9.894-9.063
			c4.058,0.887,5.911,3.983,10.716,4.119C738.695,701.06,736.762,701.05,737.316,703.524z M645,275.891
			c0-17.809,16.824-29.559,34.633-29.742C697.625,245.965,715,256.613,715,275.707v7.16c0,4.957-4.23,9.133-10.473,9.133h-34.516
			c-2.754,0-4.012,1.516-4.012,4.27v8.262c0,9.73,6.949,19.469,16.68,19.469h9.547c4.039,0,6.426,1.879,6.426,5s-2.387,5-6.426,5
			h-9.547c-17.441,0-37.68-11.66-37.68-29.469V275.891z M552,200.434c0-11.199,7.053-13.035,11.092-13.035
			c4.223,0,10.908,2.387,10.908,12.668v75.641c0,7.16,6.24,8.262,9.361,4.406l25.977-31.027c2.02-2.387,4.544-4.223,8.399-4.223
			c6.059,0,8.055,6.977,2.914,13.402L608.89,273.32c-2.387,2.57-4.412,5.324-4.412,8.078c0,5.691,7.341,6.059,9.911,11.016
			l12.85,30.477c2.02,4.957,0.734,11.566-4.773,11.566c-3.305,0-5.876-1.102-8.079-4.223l-20.56-30.477
			c-7.711-11.199-19.826-8.445-19.826,4.406v17.809c0,10.281-6.686,13.035-10.908,13.035c-4.039,0-11.092-1.836-11.092-13.035
			V200.434z M543.585,455.456c2.981,0.876,3.843,3.857,8.247,3.296c0.796,1.678,1.678,3.267,2.475,4.95
			c-0.16,1.212-1.804,0.942-2.475,1.648c-0.411,1.783,0.46,2.29,0.826,3.296c3.086,0.341,3.883-1.613,5.767-2.475
			c0.727-5.947-3.006-7.43-4.123-11.538c0.917-0.23,0.591,0.787,1.237,0.822c7.425-6.263-3.632-15.08,0.411-23.902
			c6.418,0.576,16.272,1.698,12.365,9.89c-2.981,0.18-7.37-1.047-6.593,2.886c2.881,2.595,7.405,0.205,10.716-0.411
			c0.255-3.036-0.696-7.289,0.821-9.068c3.697,1.248,9.123,0.767,11.538,3.292c-6.758-9.514,2.545-19.178,6.593-25.55
			c3.557-0.12,4.614,2.024,7.419,1.648c5.527-0.731,7.311-10.576,15.656-9.068c0.557,1.829-1.513,2.69-2.47,4.123
			c-0.251,0.371,0.266,1.292,0,1.648c-0.736,0.957-2.729,1.478-3.296,2.47c-0.216,0.381,0.27,1.323,0,1.648
			c-1.554,1.883-4.514,3.011-5.771,4.944c-0.236,0.371,0.275,1.323,0.005,1.653c-3.006,3.632-7.49,7.034-11.127,10.711
			c-1.719,1.738-3.507,3.917-5.361,5.771c-1.818,1.824-4.624,3.187-5.766,4.95c-0.246,0.371,0.271,1.297,0,1.648
			c-0.496,0.651-1.894,0.897-2.47,1.648c-0.727,0.932-0.932,3.186-1.648,4.118c-1.248,1.613-3.231,3.687-4.123,6.598
			c-0.401,1.298,0.456,2.846-0.822,4.123c-0.511,1.333,1.333,0.311,0.822,1.644c-2.991-0.651-3.392-7.104-7.42-4.118
			c-0.05,3.076,1.333,4.719,3.302,5.771c-1.773,5.09,0.351,12.996-0.827,18.13c-0.816,3.582-3.527,3.963-5.767,5.771
			c-3.687-1.949,1.123-12.389-6.182-10.716c-3.146,3.312,0.386,9.093,0.411,13.186c-4.394,0.005-8.788,0.005-13.186,0.005
			c-0.246-8.001,0.892-17.379-1.648-23.081C543.095,464.854,543.806,460.621,543.585,455.456z M557.613,532.938
			c-2.786,0.235-4.745,1.297-8.246,0.822c0.576-7.219,2.951-16.693,0.821-23.902c0.11-6.207,4.579-8.061,4.945-14.013
			c0.671-0.701,2.314-0.436,2.475-1.648c8.942,1.653,1.778,14.358,4.944,21.427c-1.889,0.581-2.229,2.715-4.118,3.296
			C558.225,523.66,559.046,529.427,557.613,532.938z M536.171,448.863c0.271,0,0.546,0.005,0.827,0.005
			c3.332,2.63,0.301,11.362,0,15.656c-2.48,0.561-2.47-1.378-4.945-0.822C531.902,457.234,537.594,456.608,536.171,448.863z
			 M528.751,466.999c3.487-0.185,4.458,2.139,8.246,1.648c2.635,8.441,0.261,16.808,2.475,25.55
			c4.113,0.28,6.768,2.019,11.538,1.648c0.035,3.878-2.867,4.825-4.12,7.42c-4.138-0.291-6.891,0.506-9.891,1.648
			c0-2.61,0-5.22,0-7.83c-6-2.214-6.973-9.784-14.017-11.127c-0.906-4.309-2.824-7.61-4.944-10.711
			c2.029,0.1,3.963,0.12,4.945-0.827c2.625,1.638,4.249,4.268,8.657,4.123c1.809-4.429-3.627-5.16-6.187-6.593
			C524.077,467.82,528.987,469.979,528.751,466.999z M537.829,517.278c-6.482-1.533-5.03,4.859-7.419,7.415
			c-1.463-0.181-0.556-2.646-1.648-3.202c-2.966,0.606-3.682,3.509-3.296,7.509c-1.648,0-3.296,0-4.945,0
			c-0.736-2-1.909-3.677-1.648-6.683c3.487-1.874,5.972-4.79,8.652-7.47c8.031,3.452,10.315-4.391,17.72-4.141
			c0.25,7.395-0.13,14.147-0.821,20.589c-3.492-0.626-4.404-3.838-9.068-3.297c1.227-2.76,2.906-5.067,4.123-7.833
			C538.641,519.485,538.4,518.214,537.829,517.278z M528,582.396c0,1.643,0,3.296,0,4.939c-4,0.27-5.804-1.914-9.917-1.644
			c0.07-1.173-1.407-0.802-0.835-2.475c-1.673,0.571-1.314-0.892-2.482-0.821c-2.069-7.004-6.947-11.192-11.546-15.662
			c6.107,0.491,11.193,2.024,18.162,1.644C519.082,575.383,518,582.355,528,582.396z M525.47,565.908
			c1.172,0.07,0.802-1.393,2.475-0.826c0.982,3.141,3.011,5.23,4.123,8.246c-0.586,1.889-2.715,2.225-3.301,4.118
			c-0.952-0.696-2.225-1.062-4.118-0.821C525.119,573.443,527.624,569.1,525.47,565.908z M552.684,654.919
			c5.28,1.863,9.709,4.579,17.309,4.118c-0.246,1.894,0.13,3.176,0.821,4.123c-1.022,2.55-2.72,4.424-4.944,5.771
			c-3.397-8.262-16.267,2.484-20.606-4.119c0.942-0.981,0.932-2.92,0.827-4.943C549.076,659.007,551.206,657.289,552.684,654.919z
			 M552.679,645.855c4.208,0.677,9.027,4.414,14.012,1.648c0.07,2.676,2.32,3.176,1.653,6.594
			C562.583,651.883,554.001,652.504,552.679,645.855z M512.314,777.74c-5.792-1.202-3.873,4.27-2.475,6.594
			c0.511,1.332-1.333,0.311-0.821,1.643c-1.578-0.07-1.122-2.174-3.296-1.643c0.311-2.1-1.408-2.164-2.064-3.297
			c-1.558-0.602-0.792,1.133-2.059,0.822c-8.041-4.84,2.806-10.967,0.822-19.779c5.541,3.521,10.761,7.369,14.839,12.359
			c0.781,4.354-1.553,5.591-4.123,6.598C513.682,779.113,511.768,779.654,512.314,777.74z M505.686,529.231
			c-1.453-1.152-2.32-2.896-4.123-3.708c1.087-3.968,5.581-1.904,7.419,0c-0.105,2.024-0.12,3.963,0.822,4.945
			c-7.054,9.443,3.361,20.646,0.832,30.495c-2.52-0.361-6.613,0.847-7.831-0.822c-0.601,1.463-3.527,0.601-5.355,0.822
			c-7.109-7.795,6.122-16.132,1.643-26.372c-2.575-1.272-6.888-0.807-8.241-3.296c2.901-0.942,5.146-2.545,9.063-2.475
			c0.286,1.644,2.189,1.658,2.475,3.296C504.734,532.407,506.012,531.616,505.686,529.231z M520.501,616.188
			c-0.125,2.35,0.633,5.621-1.687,5.771c-0.501-3.627-2.814-5.33-5.814-6.598c0-2.746,0-5.491,0-8.236
			c2,0.807,2.652,2.615,2.527,5.355C516.8,614.088,518.838,614.971,520.501,616.188z M516,599.705c0-2.75,0-5.496,0-8.241
			c3-0.03,6.045,1.433,9.683,1.644c0.365,5.45-2.768,7.294-5.252,9.889C518.021,602.796,518,600.241,516,599.705z M514.769,641.738
			c-0.456,1.197-1.198,1.918-1.648,3.115c-6.042-5.275-15.365-19.854-8.246-29.854c1.373,0,3.125,0,4.125,0c0,1,0,2.014,0,2.836
			c-7,0.641-5.3,19.448,3.298,14.012C512.989,635.28,512.494,639.889,514.769,641.738z M502.395,590.643
			c1.924,0.27,3.116,1.277,5.771,0.821c0,6.593,0,13.187,0.005,19.778c-4.379-0.01-5.015-5.02-4.95-8.656
			C503.301,598.287,504.749,593.854,502.395,590.643z M508.987,587c-1.097,0-2.194,0-3.296,0c-2.154-5-7.109-7.726-6.593-15.661
			C504.123,574.521,510.485,580,508.987,587z M499.246,791.338c-0.145-1.644-1.321-2.311-1.707-3.708
			c-2.054,0.13-3.998,0.12-4.153-1.647c1.168,0.07,0.787-1.393,2.456-0.827c0.511-1.333-1.34-0.311-0.829-1.644
			c1.919-0.551,1.375,1.368,3.292,0.822c-0.095,2.014,1.266,2.58,1.647,4.117c1.783,0.411,2.289-0.461,3.295-0.821
			c1.333-0.511,0.315,1.333,1.648,0.821c-1.804,9.459-10.233,12.18-15.538,18.137c-1.479-0.171-0.357-2.641-2.357-2.471
			c0-1.097,0-2.199,0-3.301C491,797.84,495.955,795.33,499.246,791.338z M515.59,647.51c1.864-0.887,2.991-2.511,3.296-4.945
			c2.646-0.381,4.479-1.573,7.415-1.653c0.661,4.429,4.128,6.042,4.128,11.132c4.188,2.815,5.1,10.25,2.47,15.656
			c-0.591,1.558,1.137,0.791,0.827,2.059c-2.75,2.471-3.686,6.594-4.783,10.721c2.911,5.331,5.057,11.644,10.057,14.83
			c0,1.652,0,3.691,0,4.691c-1,0-1.972,0-2.794,0c-6.117-5-8.822-13.858-11.543-22.535C523.045,666.027,520.42,655.73,515.59,647.51
			z M537.849,673.881c1.298,0.491,0.922,2.65,1.648,3.713c2.445,1.262,5.291,2.124,8.241,2.881
			c-0.571,1.668,0.897,1.303,0.827,2.469c-1.733,2.937-6.508,2.836-9.068,4.95C537.869,683.436,534.433,678.865,537.849,673.881z
			 M541.972,691.189c3.196-1.197,6.578-2.214,9.063-4.127c1.378,1.236,0.797,4.434,2.891,4.949c1.618,0.381,1.037-1.433,2.881-0.826
			c-0.14,2.605-1.849,3.646-1.648,6.598c-5.1-0.986-11.688,7.705-5.355,9.068c1.573-1.594,2.229-4.088,4.534-4.95
			c1.333-0.511,0.113,1.333,1.445,0.821c-2.524,6.964,2.218,11.412,7.218,13.191c0,1.373,0,2.75,0,4.123
			c-2-2.655-6.596-2.48-10.514-3.297c-4.404-0.922-7.549-3.195-10.61-4.944C541.165,702.873,544.748,698.043,541.972,691.189z
			 M568.349,696.13c-1.874,2.801-5.025,4.318-9.068,4.95C556.796,694.211,564.868,694.387,568.349,696.13z M548.561,652.449
			c-2.044-0.121-2.58,1.268-3.297,2.475c-2.575,0.371-2.94-1.453-5.766-0.826c0.566-1.669-0.897-1.303-0.827-2.471
			c3.001-2.77,5.967-5.576,9.063-8.24C548.951,645.926,549.703,649.834,548.561,652.449z M533.721,645.861
			c-1.729-3.217-2.615-7.279-4.945-9.895c-3.497-0.477-5.456,0.586-8.241,0.826c-1.518-1.783-0.561-6.031-0.827-9.068
			c5.506-3.516,7.56,5.862,12.775,2.476c3.161-0.005,6.322-0.005,9.483-0.005c0.436,2.585,1.438,4.604,2.47,6.598
			C540.82,639.77,537.774,643.316,533.721,645.861z M527.128,620.306c-1.673-1.623-1.077-5.517-2.475-7.415
			c3.347-1.928,5.952-8.432,10.711-4.123c0,1.103,0.005,2.195,0.005,3.297C531.833,614.028,529.608,617.295,527.128,620.306z
			 M513.922,479.363c6.833,4.875,3.862,14.854,4.123,25.55c-2.991,0.035-3.717,2.335-5.771,3.302
			C505.36,502.253,508.025,484.433,513.922,479.363z M525.46,509.863c-2.61,3.427-5.807,6.272-9.885,8.241
			C513.421,509.723,519.117,507.318,525.46,509.863z M531.231,504.913c-3.472-0.01-5.331,1.583-8.241,0
			c-0.11-4.418-1.879-9.233,0-13.186c4.248,1.518,4.469,7.069,9.067,8.241C531.111,500.951,531.126,502.889,531.231,504.913z
			 M478.014,281.398L501,275.891v-7.895c0-4.59-4.076-7.527-8.482-8.629l-23.61-5.875c-2.02-0.551-4.37-1.543-4.37-3.746
			s1.873-3.746,4.443-3.746h39.656c8.996,0,14.362,7.309,14.362,14.836v68.113c0,2.938-1.123,6.059-4.244,6.059
			c-2.02,0-3.59-1.652-4.508-2.57l-9.506-9.547l-4.57,5.141c-4.039,4.59-11.74,7.344-19.634,7.344
			c-16.523,0-27.424-11.199-27.424-25.152C453.114,293.883,462.776,285.07,478.014,281.398z M466.158,818.131
			c-0.626,2.395-1.308,4.729-3.292,5.771c-3.046-1.353-3.502-5.29-4.95-8.241C460.928,813.471,463.022,817.854,466.158,818.131z
			 M439,523c1,0,2.67,0,4.042,0c2.039,3,5.671,4.799,5.771,9.919c-1.423-0.045-1.052,1.708-2.475,1.668
			c-1.498-2.074-1.683-5.413-4.078-6.59c0.366-2.565-1.261-3.655-3.261-3.289C439,524.161,439,524,439,523z M309,251.473
			c0-2.387,1.139-5.508,4.443-5.508c2.02,0,3.599,1.469,4.7,2.57l9.602,9.547l5.719-4.957c6.242-5.324,10.846-8.078,18.74-8.078
			c8.262,0,13.96,2.203,19.651,11.75c7.527-7.895,14.996-11.75,25.828-11.75c15.973,0,29.316,12.668,29.316,29.742v48.469
			c0,6.059-4.941,11.016-11,11.016s-11-4.957-11-11.016v-48.469c0-9.18-6.441-16.156-13.051-16.156
			c-7.711,0-11.949,6.977-11.949,16.156v44.797c0,6.059-5.078,11.934-11.137,11.016c-4.406-0.551-7.955-3.672-8.139-8.078
			l-3.519-48.102c-0.551-9.18-2.402-15.238-8.828-15.238c-3.305,0-9.607,4.957-11.259,6.426L331,270.566v52.691
			c0,6.059-4.941,11.016-11,11.016s-11-4.957-11-11.016V251.473z M335.892,516.481c-2.009-0.741-3.587-1.909-6.593-1.648
			c0.556-3.031-1.382-3.562-0.827-6.593c6.959,1.693,14.564,2.741,16.488,9.479c0.125,0.556,1.032,0.34,1.648,0.411
			c-0.135,4.799,1.433,7.905,0.827,13.186c-2.976-0.872-3.837-3.858-8.246-3.296c-0.802-5.882,3.522-6.643,3.296-11.954
			C341.643,515.233,335.726,513.12,335.892,516.481z M330.947,530.494c-2.375,0.18-2.565-1.829-4.945-1.648
			c-1.208-4.283-2.114-11.578,4.945-9.894C328.988,522.648,331.333,525.985,330.947,530.494z M290,504.122
			c13-1.914,24,4.689,35,8.236c0,1.102,0,2.199,0,3.296c-1,0.662-2.292,2.295-3.619,3.302c-5.061-0.847-9.791-1.979-16.028-1.648
			c-1.007-2.771-2.813-6.433,0.022-8.652c-3.552-1.758-6.011,1.117-8.235,2.059c-2.325-0.146-1.386-3.422-1.511-5.767
			c-3.943-0.095-2.628,4.774-5.628,5.767C290,508.521,290,506.321,290,504.122z M321,523.901c0,1.373,0,2.745,0,4.118
			c-3-1.724-9.445-0.411-13.983-0.822c-0.011-1.914-1.397-2.46-0.841-4.94C311.416,522.508,316,523.189,321,523.901z M227,493.416
			c3-0.406,5.963-5.125,9.524-2.475c4.113-0.406,5.985,1.458,10.324,0.827c-1.232,4.669-3.906,7.891-4.934,12.775
			c0.416,0.687,1.915,0.291,2.07,1.232c3.512-2.114,4.356-6.903,6.18-10.711c1.644,0.28,1.66,2.184,3.298,2.47
			c2.334,9.484,12.641,10.992,14.84,20.605c-8.187-0.331-14.127-6.192-23.075-4.944c-1.894,0.265-3.962,1.778-6.598,1.648
			c-2.675-4.323-3.834-10.22-4.169-16.893c-0.987-2.535-4.46-2.365-7.46-1.232C227,495.615,227,494.513,227,493.416z
			 M202.394,731.557c-2.25-1.322-6.603-0.57-8.241-2.509c-0.531-5.752,2.38-8.048,1.648-14.048c1.924,0,3.847,0,5.766,0
			C203.28,721,202.594,724.473,202.394,731.557z M202.364,489.297c0.09-2.29-2.014-2.535-4.124-2.625
			c0.927,5.941,4.244,9.327,4.124,16.327c-0.822,0-1.648,0-2.47,0c-2.685-4-5.12-7.911-4.123-15.506
			c2.505-2.985,5.571-5.338,10.711-5.694C205.114,484.28,204.949,488.04,202.364,489.297z M208.13,491.768
			c1.117-2.726,0.626-7.064,4.95-6.593c1.343,2.505,4.123,3.567,4.945,6.593c1.784,0.411,2.285-0.461,3.296-0.822
			c1.418,2.976,0.671,8.121,2.475,10.711c-1.784-0.13-2.605,0.696-2.475,2.475C213.621,503.315,217.814,490.605,208.13,491.768z
			 M231.246,729.967c-2.125,0.901-3.958,2.094-4.945,4.123c-5.461,0.516-5.275-4.614-8.247-6.588
			c-0.856-5.461-5.165-7.475-8.241-10.717c0.812-1.658,3.156-1.788,5.767-1.648c3.617,3.527,10.711,3.578,14.013,7.415
			C228.861,726.31,231.636,726.561,231.246,729.967z M233.715,720.898c-3.542-5.25-12.304-5.275-16.487-9.885
			c2.74,1.148,6.914,0.131,9.068-1.647c1.202,2.234,3.261,3.606,5.355,4.939c3.091-1.442,4.884-4.179,6.182-7.415
			C240.804,712.643,235.378,717.051,233.715,720.898z M248.549,716.781c0.481-3.508-0.291-5.757-4.123-4.945
			c-3.712-8.752,6.798-9.424,13.191-10.717c-1.854,2.781-2.495,10.366-0.827,14.008c1.784,0.411,2.29-0.461,3.297-0.821
			c0.586,1.894,2.715,2.229,3.301,4.118C260.082,716.234,251.856,718.975,248.549,716.781z M265.037,714.306
			c-2.2-1.653-2.209-5.491-4.95-6.593c-0.616-3.557,2.034-3.417,3.296-3.297c3.367,0.316,4.85,9.129,9.895,7.415
			c-0.181,2.38,1.823,2.565,1.648,4.95C270.829,716.756,269.621,713.835,265.037,714.306z M276.55,520.609
			c-0.486-3.227-2.169-5.255-2.475-8.652c-3.808-6.498-11.247-9.358-14.013-16.893c6.833,1.678,12.911,4.113,18.958,6.588
			C278.208,507.984,281.088,518.004,276.55,520.609z M284.816,713.479c-1.012,0.366-1.513,1.238-3.296,0.827
			c-1.348-2.59-3.552-5.576-1.648-9.067c3.076-0.191,3.923,1.838,5.771,2.881C285.057,709.596,284.505,711.109,284.816,713.479z
			 M284.816,701.941c0.581-1.062,2.199,0.365,4.118-0.826c0.561-3.012,1.147-5.998,0.827-9.895c2.375-0.732,2.565-0.732,4.945,0
			c0.09,3.391-1.423,5.175-0.827,9.067c-1.753,1.403-3.728,2.595-5.355,4.123C286.389,704.486,286.614,702.201,284.816,701.941z
			 M292.23,706.881c2.209-0.535,2.084-3.412,4.945-3.297c1.563,2.015,3.146,3.998,4.123,6.594
			C297.962,712.257,293.643,709.361,292.23,706.881z M306.243,710.999c-0.331-6.122-3.662-9.248-7.419-11.943
			c1.102-2.204,1.422-8.166,0-10.306c1.788-0.41,2.289,0.456,3.296,0.822c0.436,5.887,2.39,10.25,6.598,12.364
			C308.778,705.839,309.124,710.037,306.243,710.999z M311.193,698.64c-1.172,0.07-0.807-1.397-2.475-0.827
			c-1.448-4.322-3.497-8.045-4.123-13.186c1.929-0.28,1.849,1.443,4.118,0.822c0.19,3.411,2.981,3.787,3.302,8.246
			C312.165,695.84,311.413,697.252,311.193,698.64z M316.138,702.758c0.351-1.312-0.361-1.562-0.827-2.059
			c2.71-4.68-1.688-12.18,1.643-15.25c3.777,1.994,2.22,9.328,7.425,9.889c0.661,2.636,2.981,3.613,4.118,5.771
			C325.997,704.717,319.97,704.512,316.138,702.758z M327.675,692.042c5.065-1.312,11.087,3.062,11.538,9.067
			C333.447,700.008,329.414,697.172,327.675,692.042z M343.336,697.812c-0.28-1.923-1.282-3.115-0.826-5.771
			c4.138-0.29,7.184,0.506,9.889,1.644C352.479,698.158,347.935,698.014,343.336,697.812z M332.62,686.271
			c-0.671-9.188,9.589-7.444,15.656-9.89c0.667,4.549,4.318,6.122,4.123,11.538C344.919,684.737,337.319,691.145,332.62,686.271z
			 M365.585,691.211c0.516,2.574-2.074,2.043-2.881,3.301c-1.618,0.381-1.042-1.433-2.885-0.826c0.205-1.574-0.566-2.18-1.648-2.475
			c0.812-7.957-2.811-11.473-4.95-16.483c2.725-0.021,2.84-2.649,5.771-2.475c1.408,5.19,6.478,6.714,7.419,12.364
			C361.467,683.871,361.276,691.16,365.585,691.211z M378.776,687.087c-1.393-2.454-3.767-3.923-5.771-5.767
			c-1.197,0.451-2.099,1.197-3.296,1.654c-0.095-5.952-5-7.09-6.598-11.543c2.78-3.267,12.094,0,14.839-3.297
			c3.136,5.746-3.246,15.932,4.123,17.305C381.847,686.861,380.65,687.317,378.776,687.087z M372.158,524.717
			c0.471,1.177,1.293,2.004,2.475,2.47c0.436,2.906-0.707,4.238-2.475,4.95c-1.858-0.611-2.465-2.475-3.296-4.123
			c-1.167-0.07-0.801,1.398-2.47,0.827c0.13,1.368,0.06,2.535-0.827,2.886c0.721,1.884,2.831,2.385,2.475,5.355
			c-3.838,0.266-6.503-0.641-9.068-1.648c-2.355,0.391-2.605,2.891-5.771,2.475c-1.388-5.511,1.022-13.266-1.648-18.957
			c1.578-2.821,4.088-4.7,9.068-4.124c-1.237,2.34-1.718,5.426-2.475,8.241c0.471,1.183,1.297,2.004,2.475,2.475
			c2.445-0.581,2.532-3.281,2.236-6.593c9.108-2.415,19.144,0.907,26.144,3.292c0,1.648,0,3.296,0,4.944
			c2,2.771,2.007,5.541,3.535,7.831c1.688,2.535,5.312,3.592,5.883,7.009C382.201,543.68,389.993,521.441,372.158,524.717z
			 M438.103,553.559c-9.058-9.354-20.26-16.562-37.093-18.131c-1.944-3-5.245-4.649-4.95-9.895
			c12.49-1.357,18.276,3.988,23.496,9.89c1.558-2.144,1.292-6.122,2.054-9.068c1.789-0.406,2.29,0.461,3.301,0.827
			c0.602,3.487-1.328,4.529-0.826,7.916c3.672,3.507,8.667-1.098,7.419-6.098c1.373,0,2.745,0,4.118,0
			c-0.411,2,0.461,2.199,0.827,3.212c1.783,0.41,2.29-0.503,3.296-0.864c1.087,2.205,2.209,4.357,3.296,6.572
			C438.935,540.675,438.268,546.856,438.103,553.559z M455.447,847.804c-9.629-0.255-3.091-16.688-13.186-16.482
			c1.533-4.539,5.465-1.027,8.241,0c1.187,2.931,3.817,5.987,1.648,9.89c4.705-2.991,7.004-8.382,9.89-13.186
			c2.831,0.625,3.196-1.203,5.771-0.827c0.411-3.156,0.761-6.3,4.118-6.51c0.23-2.521,1.779-3.688,2.475-5.688
			c1.508,0,3.021,0,4.534,0c1.894-8-2.054-12.868-2.891-19.04c3.196-0.171,4.289,1.716,6.593,2.427
			c-0.326,3.523,0.792,8.462-0.822,10.696c0.716,1.213,1.257,2.585,3.296,2.465C477.951,826.356,459.214,829.593,455.447,847.804z
			 M485.556,1011c-2.134,0.07-1.909-2.215-3.712-2.475c0.085-4.203-2.425-5.816-3.296-9.068c2.946,1.178,5.892,2.355,9.89,2.475
			C487.029,1004.508,487.214,1008.676,485.556,1011z M482.67,996.987c-0.596-5.816,3.367-7.073,3.297-12.364
			c1.914,0.927,3.953,5.336,2.47,7.004c0.887,0.351,0.957,1.518,0.827,2.891c0.821-0.005,1.648-0.005,2.47-0.005
			c-0.566,1.668,0.897,1.302,0.827,2.47C488.312,997.824,487.475,997.002,482.67,996.987z M494.624,1014.297
			c-1.974-0.366-2.6-2.129-4.534-2.529c0.436-3.959,1.749-6.768,2.47-10.768c0.827,0,1.648,0,2.475,0c0.466,1,1.292,2.061,2.47,2.52
			C497.354,1007.908,495.366,1010.51,494.624,1014.297z M519,954.118c0-2.054,0-4.118,0-6.177c-3-0.697-4.53-2.1-6.219-3.713
			c-1.032,4.474-0.795,11.223,4.521,10.717c-1.793,3.156-6.291,3.611-11.551,3.301c4.749,5.57,5.471,13.006,4.118,21.432
			c-0.306,1.935-1.47,3.688-0.824,5.768c-1.914-0.286-3.413-0.982-4.946-1.648c-1.167-0.07-0.802,1.393-2.475,0.821
			c-0.646,3.121,1.749,3.201,3.301,4.123c-1.538,3.001-2.726,6.343-5.361,8.241c-2.976-0.18-2.605-3.707-4.534-4.939
			c-0.506-1.333,1.338-0.32,0.827-1.653c0.306-1.268-1.423-0.501-0.827-2.06c-3.647-1.983-5.696-5.565-5.771-11.127
			c1.212-0.029,1.212-1.262,2.064-1.648c1.833,0.366,3.096,1.298,4.118,2.471c1.703-4.729-1.769-7.841-3.708-10.301
			c0.12-2.76,3.126-2.641,4.945-3.707c0.756,1.438,1.969,2.425,2.47,4.118c8.267-1.868-2.585-6.368-0.821-11.948
			c-0.717-1.072-2.336-1.469-2.697-2.887c1.508-2.339,5.371-2.88,6.371-4.944c0-1.103,0-2.204,0-3.296c4,0.4,3.364,5.65,3.519,9.889
			c6.803,0.065,0.437-13.135,5.466-14.839c1.479,0.311,2.365,1.263,4.589,0.821c-4.213-4.899-5.037-14.559-3.273-23.075
			c3.086,0.21,3.526,3.087,6.612,3.297c-5.255-5.506-3.31-19.328,0.829-24.729c1.333-0.506,0.314,1.333,1.652,0.827
			c-0.471,3.081,0.567,4.649,0.823,7.009c0.055,0.906,1.749,0.17,2.476,0.41c-0.286,2.871-2.134,4.184-1.648,7.826
			c3.282,3.867,4.782,9.544,8.278,13.186C528.222,936.178,525,946.834,519,954.118z M537.884,921c-1.102,0-2.199,0-3.301,0
			c-1.934-4-4.599-6.867-5.767-11.467c3.006,2.766,4.404,7.096,9.89,7.381C539.332,919.184,537.599,919,537.884,921z
			 M540.354,910.599c-5.115,0.722-4.995-3.599-7.419-5.599c0.962,0,1.924,0,2.886,0c1.353-2,1.889-5.147,3.707-6.761
			c0.777-5.996-2.831-7.692-3.296-12.446c1.919,0.275,3.537,0.813,4.118,2.427c5.952-2.014,6.778-9.096,14.013-9.826
			C548.009,887.426,547.809,902.673,540.354,910.599z M565,860.152c-4,3.047-9.182,7.556-6.557,14.84
			c-9.474-3.668-12.792,5.096-18.112,8.246c-3.181-1.764-6.549-3.336-7.411-7.42c2.795-0.461,3.196,1.479,5.365,1.648
			c-0.275-12.074,11.619-15.921,7.792-28.852c6.272,1.969,10.923,5.375,18.923,5.766C565,856.305,565,858.229,565,860.152z
			 M588.138,748.053c-5.345-2.34-9.253-9.609-7.419-16.482c2.339,3.426,2.52,9.018,7.419,9.889
			C588.133,743.658,588.133,745.857,588.138,748.053z M580.714,715.908c1.508-1.137,5.957-2.965,7.419-0.41
			c-0.361,3.897-4.374,4.148-6.593,6.182C580.413,720.607,580.724,718.104,580.714,715.908z M575,712.612c0,3.026,0,6.047,0,9.067
			c3,4.881-2.719,7.601-2.584,12.365c-1.789,0.41-2.416-0.461-3.416-0.822c0-1.513,0-3.025,0-4.533
			c-1-0.547-0.789-1.599-2.387-1.238c2.88-3.206,3.848-9.418,2.641-14.423c-1.708-2.28-5.254-3.071-7.254-4.534
			c0-1.098,0-2.194,0-3.297c4-0.951,7.653-2.664,9.768-5.771c4.864,2.465,13.16,3.768,15.6-1.647
			c2.831-0.632,3.154,1.197,5.724,0.821c1.357,2.355,3.908,3.607,4.908,6.178c0,2.063,0,4.128,0,6.188
			c-2-0.412-2.252,0.46-3.259,0.826C590.698,706.855,578,707.758,575,712.612z M579.061,684c1.924,0,3.848,0,5.771,0
			c0.391,3-2.385,3.54-1.648,7.297c-1.613,0.978-4.609,2.75-6.593,0.886C578.159,690.179,579.646,688,579.061,684z M596.379,751.349
			c-1.477-3.467-0.545-9.339-1.653-13.187c1.894-0.24,3.171,0.131,4.124,0.822C598.554,743.639,600.031,750.057,596.379,751.349z
			 M598.429,685.414c-4.699-1.207-9.429-2.385-10.3-7.42c-9.133,1.168-14.834-1.102-16.488-7.414
			c2.896-1.093,4.499-3.467,4.945-7.004c0.471-1.303-0.646-0.868-0.827-1.521c0.817-9.197-2.109-15.056-4.945-20.056
			c1.648,0,3.297,0,4.945,0c2.335,3,4.629,5.679,8.247,7.281c-0.542,8.196-7.285,15.844-1.648,23.008
			c2.575,0.521,2.981-1.165,4.118-2.092c-4.329-7.149,2.27-14.14,3.296-21.033c4.734,0.181,11.482-0.289,13.191,4.932
			c-7.48,3.211-8.587,19.043-2.471,24.725C600.828,682.046,599.986,684.086,598.429,685.414z M606.259,683.111
			c3.171,0.42,4.048-1.366,7.42-0.74c-1.298,3.372-2.706,6.629-2.47,11.629c-1.373,0-2.746,0-4.123,0
			C604.084,691,604.781,687.414,606.259,683.111z M614.51,722c-1.648,0-3.301,0-4.949,0c-0.491-6,3.592-6.189,3.297-11.289
			c-1.127-0.652-1.197-2.456-3.297-2.146c-0.561-3.006-1.143-6.032-0.826-9.925c1.648,0,3.296,0.137,4.944,0.142
			C614.605,706.553,615.863,714,614.51,722z M618.867,730.743c3.902,0.496,6.133,2.29,10.133,3.292c0,2.203,0,4.398,0,6.598
			c-2,0.451-2.219,1.197-3.416,1.648C625.789,736.028,619.503,736.154,618.867,730.743z M633.473,758.764
			c-7.399,1.117-5.611-12.48-2.48-14.834c1.338-0.512,0.321,1.327,1.654,0.826C632.15,750.196,634.078,753.207,633.473,758.764z
			 M629.344,727.441c-4.203,0.361-5.445-2.244-9.067-2.47c-0.13-1.368-0.06-2.535,0.827-2.886
			c1.353-14.128-2.42-23.131-3.302-35.029c0.275,0,0.552-0.004,0.821,0c6.789,5.396,5.977,16.037,6.598,25.967
			c1.939,3.006,6.599,3.291,9.895,4.939C633.949,721.881,631.684,724.701,629.344,727.441z M630,710.138c0-1.924,0-3.848,0-5.771
			c4,0.53,6.588,2.745,6.598,7.415C633.382,712.252,632,711.08,630,710.138z M637.591,761.238c2.149-5.48-0.942-11.277,0-18.136
			c5.917,2.324,2.976,13.512,6.593,18.13C641.984,761.238,639.79,761.238,637.591,761.238z M649.955,757.109
			c-0.461-6.127-2.26-10.926-3.302-16.482c1.218,1.264,4.219,0.732,6.599,0.822c5.09,4.389-0.376,10.877-1.238,16.487
			C650.461,758.533,651.228,756.81,649.955,757.109z M659.018,752.992c5.807-3.166,3.793,14.138,9.073,15.244
			c0.286,1.389-0.847,1.354-1.237,2.06c-5.701-1.438-7.42-6.863-8.657-12.771C658.507,756.048,659.464,755.217,659.018,752.992z
			 M664.929,748.042c-5.846-0.195-4.929-7.274-8.929-9.062c0-1.648,0-3.297,0-4.944c-1,0.15-0.915-0.321-0.966-0.822
			c2.676,0.621,5.036,1.482,7.351,2.465c0.406,3.307,1.562,5.892,3.335,7.836C665.409,744.986,664.488,745.818,664.929,748.042z
			 M659.043,907.121c-1.919-0.547-1.383,1.367-3.297,0.826c0-4.398,0-8.793-0.005-13.186c2.786-0.311,2.511,2.434,4.124,3.296
			C658.352,899.836,659.303,904.09,659.043,907.121z M668.938,946.684c-3.688-0.982-4.003-5.336-7.42-6.594
			c-1.604-3.887-4.784-6.207-6.593-9.889c2.476,0.135,3.532,1.688,6.183,1.643c0.73-0.641,1.588-1.152,1.232-2.881
			c-0.687-0.545-0.877-1.593-2.471-1.236c0.963-6.043-3.627-6.539-7.419-7.826c-0.251-2.174,3.276-0.57,2.886-2.885
			c2.484,0.67,2.855,3.456,4.533,4.939c1.168,0.07,0.803-1.393,2.471-0.822c0.02-4.138-2.846-5.396-4.123-8.241
			c1.934,0.286,1.854-1.448,4.123-0.827c0.701,2.045,2.789,2.626,4.043,4.124c7.299-2.385-0.383-8.763-3.383-10.716
			c0-1.648,0-3.297,0-4.945c4,1.188,6.84,3.131,11.623,3.297C673.391,918.799,670.525,932.06,668.938,946.684z M678.812,837.885
			c-1.749,19.949,0.275,43.676-3.287,61.816c-7.244-1.002-12.515-3.969-16.487-8.236c-1.418-9.869-1.743-23.366,2.88-29.679
			c2.35,0.541,2.937,2.841,5.361,3.296c0.957,7.225-5.541,12.195-1.648,17.31c2.585,0.661,2.585-1.257,4.123-1.647
			c0.075-6.654,3.657-9.8,2.471-17.721c-2.18-2.35-4.985-4.176-7.42-6.271c-1.058-5.811-1.354-12.753-4.945-15.753
			c-1.102,0-2.199,0-3.301,0c3.912-2,2.234-7.241,3.296-11.45c1.097-4.328,4.995-4.292,9.89-4.903
			c-0.727,3.969-3.512,10.834,0.005,14.041c1.167,0.07,0.802-1.381,2.476-0.811c-0.326-3.897,0.255-6.877,0.82-9.889
			c3.908-0.34,6.738,0.404,9.063,1.651C681.768,833.142,680.666,835.891,678.812,837.885z M668.912,732c1.919,0,3.843,0,5.767,0
			c0.751,2,1.849,2.517,3.296,3.263c0.457,2.655-0.545,4.737-0.82,5.737c-1.924,0-3.848,0-5.771,0
			C671.002,738,668.15,737,668.912,732z M696.938,767.821c-6.223-0.371-7.52-5.671-8.241-11.538
			c1.573-0.075,1.117-2.174,3.296-1.648c0.717-5.937-8.656-1.783-10.715-4.944c0.14-1.638-0.517-4.083,0.82-4.534
			c0.297-1.117-1.943,0.296-1.647-0.821c0.536-1.522,0.917-3.206,1.647-4.534c5.356,2.75,9.054,7.159,13.191,11.122
			C691.557,757.461,698.986,763.002,696.938,767.821z M707,765.346c-2-0.525-1.805,1.578-3.383,1.654
			c-1.68-4.094-4.191-7.395-4.167-13.191c0.827,0,1.714,0.005,2.541,0c1.303,1.999,3.009,3.643,5.009,4.945
			C707,760.953,707,763.152,707,765.346z M766.996,735.668c-0.381,4.389-3.146,8.356,0,12.364c-1.989-0.616-1.719,1.026-1.648,2.47
			c-9.363-2.039-14.99,5.57-19.779,10.717c-7.41,0.33-14.975-8.412-19.784-0.822c-1.382-3.973-0.08-10.631-7.009-9.062
			c-0.916,0.175-0.165,2.029-0.41,2.885c0.801,0.437,1.648,0.827,2.475,1.238c-0.051,4.99,1.693,8.396,2.676,12.364
			c-3.598-0.056-7.516-3.247-10.516-0.827c0-3.432,0-6.868,0-10.305c-2-2.506-5.24-3.477-5.973-7.004
			c-2.645-0.376-4.579-1.563-7.52-1.644c-5.941-6.423-11.834-12.945-20.656-16.482c0.065-1.173-1.417-0.807-0.852-2.475
			c-2.755-1.223-7.226-0.751-11.14-0.821c-1.086,0.701-1.413,2.164-2.065,3.296c-6.924,0.601-6.46-6.183-9.071-9.89
			c2.842-1.007,3.392-4.299,4.944-6.593c-1.037-3.907-2.491-7.404-4.95-9.89c-3.843-0.821-4.696,1.343-6.595,2.475
			c-0.465,3.212,0.707,4.79,1.648,6.594c-2.029,0.986-3.221,2.82-4.118,4.939c-1.448-0.746-2.124-2.265-4.944-1.643
			c0.972-10.597-2.084-17.149-10.721-18.137c-1.693-6.407-3.863-12.339-7.415-16.893c-3.462-1.348-4.184-5.436-7.425-7.004
			c-5.305-0.631-8.121,1.223-13.186,0.826c-1.519-2.33-1.168-6.527-2.471-9.067c1.188-4.574,1.253-10.286,7.415-9.89
			c-0.606-9.283-6.522-13.266-17.314-12.364c-2.931-3.382-8.687-3.942-9.063-9.89c-4.534-0.826-9.719-0.997-15.255-0.816
			c-1.067,0.711-1.458,2.104-2.881,2.47c-3.662-3.342-4.79-9.224-10.305-10.716c-1.693,1.463-3.071,3.246-4.529,4.949
			c0.13-1.924-1.428-2.145-0.827-4.539c-2.755-2.044-6.167-3.441-11.538-2.875c1.989-5.11,7.475-3.808,13.597-3.307
			c2.139-1.563,3.056-4.359,3.707-7.415c-1.578-0.616,0.155-4.549-1.648-4.944c1.874-1.518,3.652,3.982,5.771,4.944
			c0.386,7.034,5.18,9.654,9.89,12.364c0.741,5.441,8.507,3.854,14.428,4.113c1.789-0.557,1.548-4.654,0.411-5.766
			c-10.311,1.242-13.562-4.57-18.136-9.063c1.127-2.72,5.34-2.35,7.419-4.123c-0.075-6.247-0.015-12.63-6.598-12.364
			c-0.391,4.519,2.655,5.591,2.475,9.889c-1.784-0.41-2.29,0.461-3.296,0.832c-2.771-3.557-5.531-7.113-9.068-9.895
			c-4.509-1.262-10.812-0.727-16.488-0.821c0.075-2.259,1.809-2.86,2.475-4.534c0.055-5.029-6.438-3.998-9.068-2.059
			c-0.065-6.658-0.426-13.611,4.945-14.834c-0.186-6.413-2.686-10.511-5.771-14.013c0.226-1.878-0.226-3.071-1.653-3.301
			c-0.396-4.269,1.403-10.741-2.475-11.533c-4.389,1.363-1.248,9.268-0.822,13.186c-3.131,1.658-5.466-0.662-9.89,0
			c3.502-9.539-5.952-16.813-2.475-26.372c6.107-0.341,9.002,2.535,15.661,1.643c-0.827,0.957-0.992,2.575-0.821,4.534
			c4.754,3.762,6.743,10.285,11.953,13.602c1.092-3.983-3.762-5.581-4.534-9.068c6.097,2.134,11.683,4.794,18.131,6.588
			c1.337,0.511,0.315-1.185,1.648-0.674c0.421-5.055-5.085-8.217-2.475-12.217c1.648,0,3.296,0,4.944,0
			c2.435,5,2.38,12.042,4.128,17.572c0.255,1.939-0.687,5.011,0.822,5.698c0.19,1.733-0.582,4.392,0.821,4.908
			c0.606,7.91,2.756,13.884,5.541,20.587c3.322,8.001,9.253,20.998,16.253,24.295c0,0.687,0,1.372,0,2.059
			c5,7.615,7.955,16.733,14.253,22.665c1.447,3.496,4.04,5.967,7.537,7.414c1.833,3.387,6.752,3.748,9.122,6.594
			c2.805,7.084,7.779,12.033,14.867,14.834c0.777,2.249,2.535,3.527,3.312,5.771c-1.012,2.148-3.464,2.846-3.29,6.182
			c3.117,1.729,4.648-1.668,6.188-2.891c2.248,0.365,2.631,2.596,5.361,2.475c-3.176,2.185-1.696,9.018-4.943,11.133
			c1.142,1.052,2.27,2.123,4.535,2.054c3.691-2.199,3.461-9.612,0.41-12.333C660.109,685.16,678.902,690,696.105,697
			c1.098,0,2.195,0,3.297,0c0.837,1,0.807,3.004,1.648,4.092c-1.908,1.658-4.394,2.729-4.945,5.755
			c-6.021,1.854-10.57-3.67-17.719-3.304c-1.403,0.521-1.344,2.5-1.238,4.524c2.565,2.796,7.5,3.214,11.538,4.537
			c-0.992,4.499-4.925,6.061-8.241,8.24c-2.746-0.967-4.398-3.017-7.83-3.298c-0.732,0.643-1.589,1.158-1.232,2.886
			c2.444,2.5,5.67,4.218,10.3,4.534c5.069-3.041,10.771-5.441,11.127-13.191c2.274,0.621,2.188-1.111,4.123-0.826
			c-1.138,3.121-1.879,6.639-1.648,11.127c1.474,0.861,1.653,3.021,4.123,2.886c2.986,7.86,0.341,21.366,11.948,20.605
			c2.125-2.415,4.577-4.309,7.647-5.771c2.641,4.269,6.997,10.751,12.997,8.236c0-0.957,0-1.919,0-2.881
			c-6-1.162-11.134-6.929-8.879-13.602c3.537,0.521,4.723-1.413,6.688-2.47c0.029-8.137-3.48-12.69-4.902-19.373
			c-2.816-2.129-5.904-3.958-11.104-3.707c-0.687,0.41-0.279,1.908-1.227,2.063c0.467,0.496,1.184,0.747,0.833,2.06
			c9.499-0.156,9.637,9.053,11.546,16.482c-1.013,0.365-1.512,1.236-3.295,0.826c-2.906-6.303-6.794-11.613-15.25-12.364
			c-1.452,2.124-2.474,4.669-4.122,6.598c-1.743,0.095-1.823-1.473-2.886-2.06c1.549-6.281,1.744-13.916,7.414-16.07
			c0.632-3.658-1.082-4.965-0.82-8.247c5.02,1.849,11.688,2.054,18.135,2.47c0.586,1.744,2.08,2.59,1.644,5.355
			c2.22,2.455,6.974,2.37,9.073,4.945c-1.273,4.523-3.903,10.601-1.648,16.076c6.017-0.581,10.37-2.82,16.482-3.301
			c-3.051,5.926,4.354,9.514,1.653,14.834c-8.196,0.1-15.46-5.235-20.606,0.832c-0.311,1.812,0.316,2.699,1.238,3.296
			c1.994-0.751,3.527-1.969,4.939-3.302c4.499,1.138,8.146,3.121,14.429,2.471c-0.392,3.136,0.235,5.26,1.647,6.598
			c1.168,0.064,0.803-1.398,2.476-0.826c0.616-8.777,1.127-14.804-2.479-20.551c2.494-3.136,6.787-4.186,8.651-8.186
			c0.687,0,1.373,0,2.063,0c1.058,3,0.377,5.78,0.827,9.007C765.057,728.88,767.316,731.965,766.996,735.668z M539.487,609
			c2.2,0,4.399,0,6.593,0c1.127,1,0.816,3.461,0.827,5.655c-1.212-1.262-4.213-0.673-6.593-0.774
			C539.372,612.904,539.382,611,539.487,609z M705.174,724.962c2.846-0.456,1.674-4.925,5.771-4.124
			c2.896,3.974,7.309,6.424,7.42,13.187c-4.123,1.373-5.341,5.651-10.717,5.771C706.637,735.041,705.444,730.468,705.174,724.962z
			 M757.512,712.592c-1.367,2.335-1.698,5.722-6.182,4.945c-0.768-3.763-2.02-7.049-1.648-11.953
			c-6.518-7.285-6.188,6.428-4.118,11.953c-3.558,0.016-5.245,1.898-9.067,1.648c-0.316-5.261,2.329-7.555,2.469-12.365
			c2.961-1.021,1.909-4.538,3.297-6.592c1.854-2.73,5.295-2.576,7.414-4.945c1.483-0.029,3.357,0.459,3.713-0.703
			c5.972-0.064,12.439-0.58,14.424,3.42c0.961,0,1.924,0,2.885,0c1.434-2,3.447-3,4.535-5.074c1.332-0.506,0.314,1.276,1.647,0.766
			c1.323,7.194,6.052,10.957,7.42,18.101c-2.396-1.769-7.38-0.687-9.067,0.812c-1.669,5.09,0.766,9.922,0,16.479
			c-1.193,0.451-2.1,1.189-3.297,1.645c-3.627-4.062-2.53-12.857-4.123-18.959C764.275,711.938,759.842,711.209,757.512,712.592z
			 M771.113,735.812c10.641,0.581,10.436-9.812,9.063-18.812c1.372,0,2.75,0,4.123,0c2.9,2,2.914,6.783,5.585,8.918
			c1.623,0.381,1.115-1.578,3.115-0.971c0-1.373,0-2.746,0-4.119c1,0.747,2.32,1.844,3.071,3.297
			c-0.185,1.463-2.854,0.557-3.415,1.648c-0.045,1.418,1.641,1.052,1.596,2.475c-5.957,6.684-15.921,9.461-23.932,14.085
			C769.97,739.513,770.607,737.776,771.113,735.812z M817,943.367c-4-4.158-9.819-6.664-9.895-14.834
			c4.173,2.971,5.895,8.847,9.895,11.537C817,941.168,817,942.265,817,943.367z M841,953.256c-2-0.285-3.311-0.981-4.844-1.648
			c0.046-3.07-0.777-5.215-1.598-7.419c-5.922-0.636-2.436,7.545-1.623,9.89c-5.802,0.029-6.396-5.131-10.704-6.594
			c-1.167-0.069-0.794,1.398-2.464,0.827c0.441-2.991,2.214-4.659,1.652-8.651c-3.617-4.489-7.84-8.377-9.894-14.424
			c4.95-0.006,6.579,3.312,9.891,4.944c1.167,0.07,0.808-1.393,2.476-0.827c0.346-5.014-5.195-4.147-6.598-7.419
			c-2.621-0.15-6.062-1.909-8.242,0c-4.012-2.58-8.205-4.979-9.889-9.89c5.02,1.378,9.218,0.826,9.062-4.944
			c3.146,0.075,4.023,6.929,7.42,2.886c-1.488-4.694-4.419-7.951-9.068-9.479c-0.591-2.43-0.941-5.101-2.475-6.594
			c-1.167-0.07-0.801,1.393-2.47,0.827c-0.677,5.896,3.337,7.099,2.47,13.187c-2.48,0.561-3.031-0.812-4.945-0.822
			c0.576-3.176,1.043-4.694,0-8.657c-1.232-4.688-6.863-7.444-9.067-11.538c-1.253-2.334-3.341-2.93-2.475-7.008
			c0.155-0.707,1.714-2.195,2.475-3.297c1.509,1.383,0.456,5.315,2.886,5.771c1.618,0.381,1.037-1.434,2.886-0.826
			c2.45-10.677-7.705-14.23-9.067-21.866c-0.562-3.136,0.135-6.685,1.643-8.685c3.297,0,6.594,0,9.89,0
			c-0.15,1,0.673,0.836,0.673,0.882c0,0.687,0,1.372,0,2.06c4,5.932,5.312,14.272,9.145,20.189
			c3.026,9.889,6.551,19.318,10.754,28.025c1.428,5.439,3.03,10.631,5.696,14.834c3.707,12.775,9.405,23.406,16.405,32.97
			C841,951.057,841,952.154,841,953.256z M850.229,650.761c-2.194,0.591-2.074,3.347-3.296,4.944
			c-1.018,1.328-3.247,1.949-4.123,3.297c-0.246,0.386,0.265,1.282,0,1.648c-0.301,0.426-1.403,0.29-1.645,0.826
			c-1.166,2.545-1.037,6.091-1.652,9.142c-1.338,6.673-3.473,12.382-7.415,17.382c-0.821,0-1.647,0-2.47,0
			c-4.283-3-5.451-9.647-0.826-12.849c-5.727-1.873-8.428,2.8-7.42,9.032c2.645,0.791,3.422,3.433,5.776,4.515
			c-0.005,0.547-0.005,1.174-0.005,1.725C820.947,703.169,813.787,715,800.787,721c-1.102,0-2.199,0-3.297,0
			c-1.367-2-2.229-3.902-4.949-4.209c-4.59-9.418-9.459-18.604-13.191-28.885c15.672,0.006,24.658-6.689,34.613-12.396
			c0.15,1.913,1.338,2.594,0.826,5.164c5.877,4.369,3.773-5.675,2.476-9.675c0.687,0,1.372,0,2.06,0
			c11.562-7,24.262-13.742,28.43-28.666c3.017-0.541,2.08,2.958,3.297,4.21C850.359,647.501,849.984,648.867,850.229,650.761z
			 M872,547.791c0,17.258-17.375,29.926-35.367,29.742C818.824,577.35,802,565.6,802,547.791V519.15
			c0-17.809,16.824-29.559,34.633-29.742C854.625,489.225,872,501.893,872,519.15V547.791z M823,426.13v-9.547
			c0-5.937,5.441-9.854,11.377-9.915c5.998-0.061,11.623,4.162,11.623,9.915v9.547c0,5.753-5.625,9.976-11.623,9.915
			C828.441,435.984,823,432.067,823,426.13z M861.979,407h6.488c1.407,0,2.632,1.215,2.57,2.622
			c-0.062,1.347-1.225,2.378-2.57,2.378h-4.284c-1.041,0-1.53-0.463-2.51-0.463c-2.142,0-1.897,3.686-2.203,5.399l-2.938,16.654
			c-0.245,1.285-0.787,2.359-1.95,2.298c-1.041-0.061-1.583-0.945-1.583-2.292v-35.987c0-6.732,4.398-10.71,11.437-9.792
			l1.862,0.245c1.102,0.123,1.91,0.99,1.85,2.092S867.183,392,866.08,392h-1.102c-2.876,0-4.979,2.121-4.979,5.365v7.467
			C860,405.994,860.878,407,861.979,407z M852.13,334h-30.66c-3.121,0-4.957-1.699-4.773-4.27c0.184-2.203,1.652-3.236,4.773-3.42
			l30.66-2.903c6.793-0.551,12.301-6.053,12.301-12.479c0-5.508-5.324-11.928-12.301-11.928h-15.973
			c-17.441,0-26.254-9.977-26.254-27.418c0-15.238,14.137-25.582,25.52-25.582h19.094c2.938,0,6.059,2.338,6.059,5.275
			S857.454,256,854.517,256h-19.277c-5.875,0-10.465,4.717-10.465,10.592S829.364,277,835.423,277h16.156
			c18.359,0,28.273,12.527,28.273,29.785C879.853,319.27,867.185,334,852.13,334z"/>
	</g>
</g>
</svg>
