<?xml version="1.0" encoding="utf-8"?>
<!-- Generator: Adobe Illustrator 15.0.2, SVG Export Plug-In . SVG Version: 6.00 Build 0)  -->
<!DOCTYPE svg PUBLIC "-//W3C//DTD SVG 1.1//EN" "http://www.w3.org/Graphics/SVG/1.1/DTD/svg11.dtd">
<svg version="1.1" id="Layer_1" xmlns="http://www.w3.org/2000/svg" xmlns:xlink="http://www.w3.org/1999/xlink" x="0px" y="0px"
	 width="1188px" height="1184px" viewBox="0 0 1188 1184" enable-background="new 0 0 1188 1184" xml:space="preserve">
<path fill="#4F2B5F" d="M1168.81,661.105V517.647l-171.47-71.451c-4.752-13.449-9.796-26.482-15.971-39.226l69.204-172.311
	L949.148,133.234L778.373,203.56c-13.034-6.315-26.337-11.627-40.055-16.53L665.605,16.69H522.147l-70.886,169.79
	c-14.289,5.037-28.012,10.366-41.612,16.811l-170.479-68.499L137.746,236.218l69.484,168.943
	c-6.725,13.874-12.188,28.013-17.371,42.587L21.19,519.9v143.447l168.804,70.336c5.188,14.569,10.787,28.713,17.511,42.588
	l-68.213,170.058l101.426,101.426l169.369-69.754c13.583,6.444,27.463,11.61,41.747,16.52L524.4,1164.31h143.447l71.031-170.63
	c13.583-5.032,27.031-10.366,39.92-16.53l172.03,68.936l101.426-101.437L981.649,773.47c6.029-12.889,10.938-25.934,15.69-39.226
	L1168.81,661.105z"/>
<path fill-rule="evenodd" clip-rule="evenodd" fill="#FFFFFF" d="M612.823,489.187c0.498-1.308-1.307-0.309-0.809-1.617
	c1.254-1.25,0.416-2.765,0.809-4.04c0.875-2.852,2.82-4.885,4.04-6.466c0.704-0.916,0.907-3.126,1.615-4.041
	c0.567-0.736,1.936-0.979,2.424-1.616c0.264-0.345-0.239-1.249,0-1.617c1.12-1.73,3.872-3.065,5.654-4.85
	c1.818-1.817,3.571-3.958,5.254-5.657c3.567-3.608,7.965-6.942,10.908-10.507c0.268-0.325-0.232-1.258-0.001-1.616
	c1.229-1.897,4.136-3.004,5.656-4.85c0.267-0.322-0.212-1.247,0-1.615c0.554-0.973,2.513-1.484,3.23-2.425
	c0.264-0.345-0.243-1.254,0.001-1.616c0.939-1.403,2.97-2.245,2.423-4.042c-8.185-1.48-9.934,8.174-15.352,8.892
	c-2.749,0.365-3.786-1.731-7.273-1.615c-3.966,6.25-13.092,15.723-6.462,25.052c-2.367-2.48-7.687-2.009-11.314-3.23
	c-1.485,1.747-0.552,5.913-0.806,8.89c-3.246,0.603-7.681,2.948-10.507,0.405c-0.762-3.86,3.543-2.653,6.466-2.829
	c3.829-8.031-5.833-9.135-12.125-9.696c-3.963,8.647,6.877,17.296-0.4,23.435c-0.635-0.036-0.315-1.031-1.212-0.808
	c1.093,4.025,4.751,5.485,4.042,11.313c-1.848,0.845-2.628,2.761-5.656,2.425c-0.356-0.99-1.211-1.483-0.808-3.232
	c0.657-0.69,2.268-0.426,2.424-1.617c-0.779-1.645-1.644-3.204-2.425-4.848c-4.319,0.549-5.165-2.376-8.083-3.231
	c0.215,5.061-0.481,9.212-2.421,12.122c2.493,5.589,1.379,14.785,1.62,22.627c4.309,0,8.619-0.001,12.928-0.002
	c-0.025-4.016-3.489-9.684-0.406-12.929c7.164-1.642,2.449,8.596,6.062,10.504c2.196-1.771,4.854-2.147,5.656-5.657
	c1.152-5.039-0.93-12.79,0.807-17.78c-1.931-1.032-3.284-2.642-3.234-5.655C609.499,482.216,609.888,488.543,612.823,489.187z
	 M573.226,490c2.43-0.544,2.419,1.352,4.85,0.807c0.294-4.213,3.267-12.776-0.001-15.353c-0.271,0-0.542,0-0.809,0
	C578.661,483.046,573.079,483.658,573.226,490z M566.761,498.083c2.506,1.404,7.835,2.126,6.063,6.463
	c-4.319,0.144-5.913-2.438-8.486-4.039c-0.961,0.923-2.861,0.91-4.848,0.809c2.076,3.042,3.958,6.277,4.849,10.505
	c6.902,1.313,7.696,8.736,13.741,10.907c0,2.559,0,5.118,0.001,7.677c2.651-1.118,5.638-1.902,9.696-1.617
	c1.228-2.542,4.07-3.472,4.04-7.274c-4.677,0.367-7.28-1.339-11.313-1.615c-2.172-8.575,0.155-16.776-2.427-25.051
	c-3.715,0.482-4.668-1.797-8.083-1.614C570.223,496.154,565.409,494.036,566.761,498.083z M555.451,505.356
	c-5.779,4.967-8.391,22.438-1.613,28.285c2.013-0.951,2.725-3.202,5.656-3.233C559.239,519.917,562.15,510.133,555.451,505.356z
	 M243.521,513.48c-0.976,7.441,1.413,11.517,4.042,15.354c0.808,0,1.617,0,2.424,0c0.115-6.85-3.134-10.336-4.042-16.163
	c2.067,0.088,4.129,0.181,4.04,2.424c2.536-1.235,2.699-4.844,4.04-7.274C248.982,508.167,245.977,510.549,243.521,513.48z
	 M255.642,517.519c9.494-1.144,5.383,11.319,12.933,12.12c-0.13-1.745,0.678-2.554,2.423-2.424
	c-1.768-2.543-1.032-7.589-2.426-10.505c-0.989,0.357-1.482,1.211-3.232,0.808c-0.802-2.969-3.532-4.011-4.85-6.463
	C256.255,510.59,256.736,514.841,255.642,517.519z M283.522,516.707c-3.49-2.597-6.167,2.025-9.293,2.426c0,1.077,0,2.155,0,3.232
	c2.432-1.108,6.302-1.275,7.273,1.21c0.327,6.543,1.417,12.324,4.042,16.566c2.582,0.128,4.611-1.359,6.464-1.618
	c8.773-1.223,14.599,4.525,22.628,4.847c-2.16-9.424-12.262-10.904-14.549-20.201c-1.607-0.278-1.625-2.147-3.232-2.424
	c-1.787,3.736-2.616,8.427-6.059,10.506c-0.152-0.926-1.616-0.539-2.021-1.212c1.003-4.789,3.638-7.945,4.847-12.526
	C289.367,518.135,287.556,516.309,283.522,516.707z M564.342,530.407c2.853,1.549,4.678-0.013,8.081-0.001
	c-0.103-1.988-0.116-3.886,0.807-4.849c-4.507-1.149-4.721-6.592-8.891-8.08C562.499,521.351,564.233,526.076,564.342,530.407z
	 M598.281,519.896c-0.157,1.19-1.768,0.928-2.425,1.617c-0.359,5.836-4.738,7.651-4.847,13.738
	c2.089,7.069-0.244,16.358-0.805,23.437c3.431,0.465,5.353-0.575,8.082-0.809c1.409-3.442,0.604-9.096,0.807-13.739
	c1.854-0.571,2.186-2.663,4.04-3.234C600.027,533.975,607.052,521.518,598.281,519.896z M320.294,537.308
	c0.302,3.335,1.952,5.323,2.426,8.486c4.451-2.554,1.627-12.38,2.421-18.587c-5.925-2.425-11.885-4.814-18.587-6.463
	C309.266,528.134,316.563,530.938,320.294,537.308z M370.396,537.706c-10.521-3.483-21.462-9.951-34.749-8.075
	c0,2.154,0,4.309,0.001,6.463c2.797-0.972,1.791-5.749,5.655-5.656c0.124,2.3-0.662,5.512,1.617,5.655
	c2.178-0.924,4.6-3.743,8.082-2.02c-2.777,2.177-0.987,5.768,0.001,8.486c6.119-0.328,10.796,0.784,15.758,1.614
	c1.302-0.99,1.993-2.588,3.637-3.234C370.397,539.86,370.397,538.784,370.396,537.706z M374.438,540.13
	c2.949-0.254,4.497,0.89,6.465,1.616c-0.161-3.294,5.64-1.224,6.465-0.405c0.221,5.203-4.018,5.947-3.23,11.718
	c4.319-0.55,5.165,2.377,8.081,3.232c0.596-5.177-0.94-8.221-0.809-12.93c-0.606-0.069-1.492,0.143-1.617-0.404
	c-1.883-6.604-9.342-7.628-16.165-9.292C373.081,536.638,374.986,537.157,374.438,540.13z M557.071,543.337
	c3.997-1.928,7.133-4.72,9.695-8.083C560.547,532.764,554.959,535.117,557.071,543.337z M568.789,540.104
	c-2.628,2.625-5.065,5.441-8.484,7.274c-0.255,2.948,0.892,4.496,1.616,6.465c1.616,0,3.233,0,4.849-0.001
	c-0.377-3.88,0.326-6.678,3.232-7.273c1.07,0.546,0.182,3.05,1.616,3.231c2.342-2.505,0.918-8.778,7.272-7.271
	c0.562,0.918,0.799,2.163,1.617,2.827c-1.193,2.711-2.837,4.975-4.04,7.677c4.568-0.528,5.467,2.613,8.89,3.232
	c0.679-6.323,1.051-12.955,0.806-20.204C578.899,535.818,576.663,543.485,568.789,540.104z M396.257,544.168
	c2.618,5.576,0.255,13.184,1.618,18.585c3.104,0.41,3.348-2.04,5.657-2.424c2.516,0.985,5.128,1.875,8.89,1.614
	c0.349-2.909-1.717-3.401-2.426-5.252c0.87-0.342,0.937-1.486,0.808-2.829c1.636,0.559,1.278-0.877,2.424-0.809
	c0.812,1.612,1.41,3.44,3.232,4.041c1.731-0.694,2.85-2,2.424-4.85c-1.156-0.46-1.965-1.266-2.425-2.425
	c17.488-3.212,9.96,18.595,25.863,16.968c-0.562-3.348-4.001-4.382-5.657-6.868c-1.495-2.245-1.836-4.962-3.234-7.677
	c0-1.617-0.001-3.231,0-4.848c-6.891-2.338-16.934-5.598-25.861-3.229c0.287,3.248-0.026,5.898-2.423,6.463
	c-1.156-0.458-1.965-1.267-2.425-2.423c0.741-2.762,1.214-5.789,2.423-8.081C400.266,539.557,397.803,541.404,396.257,544.168z
	 M371.207,553.868c2.331-0.176,2.519,1.792,4.849,1.616c0.379-4.421-1.923-7.689-0.001-11.313
	C369.133,542.519,370.021,549.668,371.207,553.868z M352.621,552.254c4.45,0.399,10.58-0.885,13.737,0.807c0-1.347,0-2.693,0-4.04
	c-4.688-0.7-9.408-1.366-14.546-1.615C351.262,549.841,352.61,550.379,352.621,552.254z M481.917,549.812
	c2.516-0.361,3.594,0.717,3.233,3.232c2.349,1.153,2.572,4.432,4.042,6.464c1.393,0.046,1.031-1.662,2.424-1.615
	c-0.1-5.021-3.659-6.58-5.658-9.698c-1.348,0-2.695,0-4.042,0.001C481.917,548.736,481.917,549.274,481.917,549.812z
	 M550.608,550.611c-1.801-1.865-6.208-3.892-7.273,0c1.767,0.794,2.617,2.503,4.042,3.637c0.318,2.339-0.931,3.111-3.233,2.83
	c-0.278-1.608-2.146-1.625-2.425-3.232c-3.843-0.072-6.041,1.502-8.888,2.426c1.331,2.44,5.56,1.982,8.081,3.23
	c4.395,10.039-8.582,18.216-1.612,25.86c1.797-0.222,4.667,0.625,5.252-0.808c1.194,1.635,5.208,0.448,7.677,0.807
	c2.482-9.655-7.73-20.639-0.812-29.9C550.493,554.498,550.506,552.599,550.608,550.611z M444.746,560.324
	c16.506,1.54,27.49,8.604,36.368,17.774c0.164-6.571,0.817-12.652,4.847-15.356c-1.067-2.166-2.168-4.298-3.234-6.463
	c-0.99,0.356-1.483,1.209-3.232,0.808c-0.357-0.989-1.21-1.481-0.808-3.232c-1.347,0-2.694,0-4.041,0.001
	c1.224,5.265-3.671,9.501-7.272,6.062c-0.494-3.324,1.398-4.259,0.808-7.678c-0.99-0.356-1.483-1.209-3.232-0.808
	c-0.75,2.888-0.488,6.785-2.019,8.891c-5.117-5.792-10.791-11.03-23.033-9.695C439.607,555.765,442.842,557.378,444.746,560.324z
	 M594.257,636.265c-0.64,2.999-1.542,5.735-3.637,7.273c-6.001-0.494-11.38-1.772-13.331,3.235
	c5.266-0.553,8.609,0.816,11.312,2.826c-0.589,2.342,0.94,2.561,0.81,4.445c1.432-1.666,2.781-3.414,4.442-4.85
	c5.409,1.459,6.514,7.226,10.104,10.504c1.394-0.357,1.777-1.723,2.825-2.424c5.425-0.172,10.511-0.007,14.952,0.804
	c0.371,5.827,6.013,6.379,8.89,9.696c10.58-0.885,16.377,3.019,16.974,12.121c-6.042-0.385-6.104,5.21-7.271,9.698
	c1.277,2.492,0.937,6.604,2.425,8.889c4.965,0.387,7.727-1.432,12.928-0.812c3.179,1.538,3.883,5.549,7.276,6.869
	c3.482,4.465,5.613,10.28,7.272,16.565c8.466,0.964,11.466,7.391,10.51,17.778c2.767-0.611,3.429,0.88,4.849,1.614
	c0.881-2.082,2.047-3.878,4.04-4.849c-0.927-1.768-2.074-3.313-1.617-6.465c1.858-1.105,2.697-3.229,6.465-2.426
	c2.41,2.439,3.834,5.865,4.851,9.696c-1.521,2.251-2.063,5.479-4.85,6.466c2.563,3.632,2.106,10.286,8.892,9.696
	c0.639-1.112,0.956-2.546,2.021-3.232c3.837,0.067,8.206-0.395,10.908,0.807c-0.557,1.636,0.877,1.276,0.809,2.425
	c8.651,3.469,14.381,9.861,20.206,16.159c2.883,0.079,4.678,1.246,7.271,1.615c0.718,3.459,3.942,4.407,5.659,6.868
	c0,3.367,0,6.733,0.001,10.101c3.39-2.37,6.979,0.757,10.505,0.808c-0.959-3.891-2.474-7.225-2.426-12.121
	c-0.81-0.402-1.638-0.787-2.425-1.211c0.241-0.838-0.498-2.656,0.403-2.83c6.79-1.536,5.515,4.991,6.87,8.889
	c4.718-7.444,12.133,1.126,19.396,0.805c4.697-5.048,10.216-12.51,19.395-10.508c-0.071-1.416-0.336-3.027,1.616-2.425
	c-3.087-3.926-0.376-7.817-0.002-12.122c0.313-3.628-1.897-6.709-2.425-10.504c-0.443-3.164,0.227-5.951-0.812-8.889
	c-0.675,0-1.348,0-2.021,0c-1.829,3.693-6.038,5.006-8.483,8.081c3.536,5.636,3.033,11.601,2.428,20.204
	c-1.637-0.559-1.278,0.877-2.426,0.809c-1.385-1.309-1.998-3.39-1.615-6.467c-6.157,0.636-9.734-1.31-14.144-2.423
	c-1.388,1.308-2.892,2.499-4.848,3.234c-0.902-0.581-1.514-1.448-1.213-3.232c5.046-5.945,12.167-0.714,20.202-0.812
	c2.65-5.216-4.611-8.732-1.617-14.546c-5.993,0.474-10.264,2.67-16.163,3.235c-2.207-5.365,0.368-11.323,1.615-15.759
	c-2.055-2.524-6.719-2.44-8.891-4.847c0.425-2.713-1.038-3.543-1.615-5.252c-6.322-0.411-12.858-0.609-17.779-2.422
	c-0.254,3.217,1.427,4.499,0.808,8.081c-5.562,2.112-5.754,9.599-7.27,15.758c1.038,0.577,1.119,2.113,2.828,2.021
	c1.616-1.888,2.617-4.387,4.039-6.466c8.292,0.732,12.107,5.942,14.954,12.12c1.749,0.403,2.24-0.451,3.23-0.809
	c-1.872-7.286-2.003-16.316-11.316-16.16c0.345-1.287-0.353-1.535-0.808-2.021c0.926-0.15,0.539-1.616,1.211-2.021
	c5.1-0.249,8.151,1.547,10.912,3.637c1.393,6.553,4.879,11.014,4.851,18.99c-1.925,1.038-2.994,2.934-6.465,2.426
	c-2.207,6.537,3.047,12.194,8.891,13.333c0,0.942,0,1.886,0,2.827c-6.67,2.466-10.337-3.893-12.93-8.08
	c-3.01,1.438-5.597,3.294-7.678,5.659c-11.384,0.746-8.787-12.491-11.718-20.2c-2.421,0.129-2.598-1.985-4.043-2.83
	c-0.227-4.4,0.501-7.849,1.615-10.908c-1.895-0.28-1.812,1.419-4.042,0.809c-0.345,7.599-5.938,9.951-10.907,12.932
	c-4.54-0.308-7.704-1.992-10.102-4.444c-0.346-1.691,0.494-2.199,1.213-2.828c3.361,0.273,4.984,2.285,7.676,3.23
	c3.252-2.136,7.106-3.669,8.081-8.082c-3.961-1.291-8.799-1.704-11.314-4.444c-0.104-1.988-0.161-3.931,1.212-4.442
	c7.013-0.358,11.473,5.046,17.374,3.23c0.539-2.965,2.977-4.03,4.849-5.658c-0.822-1.065-0.796-2.978-1.616-4.041
	c-1.078,0-2.156,0-3.233,0c-16.864-6.569-35.289-11.577-51.722-18.579c2.994,2.665,3.221,9.962-0.401,12.122
	c-2.222,0.068-3.324-0.986-4.444-2.02c3.181-2.071,1.735-8.767,4.846-10.91c-2.675,0.116-3.048-2.07-5.252-2.425
	c-1.508,1.194-3.009,4.523-6.062,2.831c-0.174-3.271,2.24-3.956,3.231-6.062c-0.763-2.201-2.472-3.455-3.232-5.657
	c-6.949-2.746-11.798-7.597-14.55-14.545c-2.325-2.791-7.088-3.144-8.887-6.464c-3.429-1.42-5.854-3.844-7.275-7.27
	c-6.171-5.816-9.223-14.754-13.742-22.223c0-0.673,0.001-1.347,0-2.019c-7.688-3.231-12.906-15.992-16.165-23.84
	c-2.729-6.568-5.066-12.446-5.661-20.199c-1.377-0.508-0.621-3.151-0.806-4.849c-1.482-0.674-0.556-3.757-0.81-5.659
	c-1.711-5.425-1.659-12.618-4.044-17.372c-1.617,0-3.233,0-4.848,0.001c-2.559,4.494,2.838,7.166,2.424,12.122
	c-1.305-0.502-0.306,1.306-1.614,0.806c-6.322-1.759-11.796-4.364-17.778-6.461c0.759,3.419,5.516,4.985,4.445,8.89
	c-5.105-3.248-7.057-9.647-11.72-13.334c-0.166-1.917-0.005-3.505,0.807-4.444c-6.528,0.871-9.366-1.945-15.353-1.615
	c-3.412,9.374,5.858,16.506,2.427,25.86c4.334-0.65,6.625,1.624,9.696-0.001c-0.422-3.838-3.497-11.589,0.806-12.929
	c3.798,0.78,2.037,7.122,2.426,11.311c1.396,0.223,1.84,1.396,1.617,3.233c3.028,3.437,5.479,7.451,5.66,13.736
	c-5.264,1.204-4.912,8.02-4.848,14.548c2.578-1.9,8.942-2.912,8.891,2.02c-0.652,1.637-2.351,2.229-2.425,4.443
	c5.564,0.092,11.745-0.433,16.162,0.807c3.469,2.727,6.176,6.216,8.89,9.697c0.99-0.358,1.484-1.212,3.233-0.81
	c0.176-4.216-2.81-5.271-2.425-9.698c6.454-0.26,6.394,5.997,6.467,12.121c-2.035,1.738-6.168,1.377-7.274,4.043
	c4.485,4.403,7.675,10.105,17.78,8.887c1.116,1.09,1.354,5.109-0.402,5.654c-5.803-0.257-13.419,1.302-14.144-4.037
	c-4.616-2.655-9.321-5.226-9.697-12.119c-2.077-0.944-3.819-6.34-5.659-4.849C594.406,631.806,592.707,635.66,594.257,636.265z
	 M566.774,590.207c2.113,3.132-0.345,7.388-0.808,10.506c1.855-0.238,3.107,0.124,4.042,0.807c0.571-1.854,2.662-2.187,3.233-4.04
	c-1.09-2.953-3.079-5.004-4.042-8.081C567.562,588.841,567.921,590.275,566.774,590.207z M556.271,606.369
	c1.146-0.068,0.788,1.367,2.425,0.81c-0.558,1.636,0.877,1.277,0.808,2.423c4.034-0.264,5.663,1.881,9.698,1.615
	c0-1.616,0-3.231-0.001-4.849c-9.303-0.035-8.72-6.872-6.466-13.737c-6.833,0.368-11.792-1.136-17.779-1.613
	C549.464,595.398,554.245,599.507,556.271,606.369z M547.383,611.22c1.077,0.001,2.154,0,3.232,0
	c1.466-6.909-4.771-12.237-9.7-15.354C540.413,603.645,545.27,606.06,547.383,611.22z M544.96,626.17
	c-0.066,3.562,0.561,8.477,4.851,8.484c-0.001-6.465-0.002-12.93-0.003-19.395c-2.603,0.449-3.774-0.535-5.658-0.807
	C546.457,617.606,545.041,621.952,544.96,626.17z M557.082,623.342c2.03,0.526,2.085,3.031,4.445,3.23
	c2.438-2.546,5.61-4.356,5.25-9.697c-3.565-0.205-5.895-1.646-9.696-1.615C557.081,617.953,557.082,620.647,557.082,623.342z
	 M554.66,638.695c2.798,1.24,5.17,2.91,5.658,6.465c2.278-0.146,1.492-3.356,1.615-5.658c-1.635-1.192-3.603-2.055-4.849-3.635
	c0.124-2.684-0.659-4.461-2.424-5.253C554.659,633.308,554.659,636.001,554.66,638.695z M565.972,636.27
	c1.371,1.861,0.786,5.679,2.426,7.271c2.432-2.955,4.616-6.156,8.08-8.081c0-1.078-0.001-2.154,0-3.23
	C571.808,628.003,569.253,634.379,565.972,636.27z M581.327,637.074c2.331,0.094,5.277-0.428,6.464,0.81
	c-0.008-2.149,0.293-4.605-0.809-5.657c-2.155,0.001-4.31,0.002-6.465,0.002C580.417,634.213,580.403,636.113,581.327,637.074z
	 M546.579,638.695c-6.979,9.604,2.164,23.918,8.085,29.091c0.444-1.172,1.171-2.061,1.616-3.232
	c-2.227-1.814-1.747-6.335-2.426-9.697c-8.426,5.329-10.131-13.11-3.234-13.736c0-0.809,0-1.617,0-2.425
	C549.272,638.695,547.926,638.695,546.579,638.695z M573.651,653.238c-5.114,3.321-7.131-5.87-12.525-2.422
	c0.256,2.976-0.677,7.143,0.809,8.889c2.729-0.234,4.651-1.277,8.081-0.81c2.286,2.562,3.153,6.546,4.85,9.697
	c3.971-2.495,6.958-5.974,10.505-8.891c-1.012-1.953-1.993-3.933-2.424-6.466C579.847,653.237,576.749,653.237,573.651,653.238z
	 M560.32,665.363c-0.301,2.391-1.406,3.979-3.232,4.848c4.735,8.062,7.308,18.283,8.892,29.495c2.67,8.51,5.32,17.04,11.319,22.222
	c0.807,0,1.615,0,2.422,0c0-1.616,0-3.233-0.001-4.849c-4.954-3.127-6.846-9.316-9.699-14.545c1.076-4.042,2.148-8.088,4.847-10.506
	c0.303-1.247-1.392-0.492-0.809-2.021c2.576-5.304,1.683-12.588-2.425-15.353c0.001-4.985-3.398-6.569-4.043-10.91
	C564.709,663.824,562.914,664.993,560.32,665.363z M616.081,684.344c0.174,0.636,1.271,0.346,0.81,1.617
	c-0.438,3.469-2.01,5.801-4.848,6.869c1.621,6.189,7.209,8.414,16.161,7.27c0.856,4.938,5.493,6.094,10.104,7.275
	c1.525-1.305,2.352-3.309,2.021-6.467c-5.997-5.57-4.913-21.098,2.422-24.246c-1.674-5.118-8.289-4.67-12.932-4.845
	c-1.01,6.76-7.478,13.599-3.23,20.606c-1.116,0.905-1.516,2.525-4.04,2.021c-5.525-7.023,1.085-14.592,1.614-22.626
	c-3.547-1.571-5.796-4.439-8.084-7.271c-1.614-0.001-3.23-0.001-4.848-0.001C614.012,669.982,616.882,675.328,616.081,684.344z
	 M854.88,693.605c-0.674,0-1.348,0.001-2.02,0.002c1.274,3.162,3.336,13.574-2.425,9.293c0.501-2.521-0.662-3.379-0.809-5.255
	c-9.763,5.595-18.574,12.135-33.938,12.129c3.659,10.079,8.432,19.046,12.934,28.281c2.667,0.296,3.511,2.415,4.851,4.038
	c1.075,0,2.152,0,3.231,0.001c12.748-5.841,19.769-17.403,25.855-29.903c0-0.539,0-1.077,0.001-1.615
	c-2.309-1.061-3.066-3.67-5.659-4.444c-0.987-6.109,1.66-10.728,7.272-8.891c-4.535,3.138-3.392,10.062,0.81,12.526
	c0.807,0,1.617,0,2.424,0c3.864-4.272,5.956-10.43,7.271-16.973c0.603-2.989,0.475-6.395,1.616-8.889
	c0.237-0.525,1.317-0.394,1.615-0.81c0.257-0.359-0.24-1.242,0-1.617c0.858-1.323,3.043-1.928,4.041-3.231
	c1.198-1.566,1.081-4.271,3.231-4.85c-0.24-1.854,0.126-3.105,0.807-4.041c-1.193-1.229-0.278-4.569-3.233-4.038
	C878.668,679.95,866.216,686.221,854.88,693.605z M579.715,674.249c-0.069,1.146,1.367,0.787,0.809,2.423
	c2.771-0.616,3.133,1.174,5.657,0.809c0.7-1.187,1.229-2.543,3.233-2.425c1.116-2.565,0.381-6.397-0.811-8.89
	C585.566,668.785,582.659,671.534,579.715,674.249z M608.808,676.668c0.656-3.35-1.551-3.837-1.618-6.465
	c-4.887,2.713-9.613-0.946-13.737-1.613C594.746,675.109,603.163,674.502,608.808,676.668z M586.991,682.328
	c0.101,1.988,0.114,3.886-0.809,4.85c4.251,6.475,16.871-4.061,20.203,4.037c2.179-1.322,3.844-3.161,4.849-5.658
	c-0.683-0.932-1.047-2.185-0.808-4.04c-7.454,0.452-11.796-2.21-16.971-4.037C592.005,679.801,589.92,681.485,586.991,682.328z
	 M407.591,693.666c1.563,4.365,6.374,5.479,6.466,11.313c1.172-0.444,2.06-1.173,3.233-1.617c1.963,1.807,4.295,3.246,5.658,5.654
	c1.838,0.226,3.011-0.22,3.231-1.614c-7.225-1.346-0.964-11.334-4.042-16.971C419.446,693.668,410.313,690.463,407.591,693.666z
	 M397.895,696.898c2.094,4.911,5.646,8.361,4.85,16.162c1.061,0.286,1.817,0.879,1.617,2.425c1.809-0.597,1.242,1.183,2.828,0.809
	c0.792-1.23,3.331-0.71,2.829-3.233c-4.227-0.052-4.04-7.199,0.807-6.466c-0.924-5.539-5.894-7.034-7.275-12.12
	C400.68,694.299,400.563,696.875,397.895,696.898z M580.529,709.807c2.507-2.072,7.188-1.974,8.889-4.851
	c0.069-1.146-1.369-0.789-0.809-2.425c-2.897-0.74-5.686-1.588-8.082-2.827c-0.711-1.041-0.346-3.156-1.617-3.637
	C575.561,700.953,578.931,705.435,580.529,709.807z M377.693,708.217c4.611,4.778,12.062-1.504,19.394,1.614
	c0.192-5.312-3.387-6.85-4.042-11.313C387.097,700.919,377.035,699.208,377.693,708.217z M645.984,704.948
	c-1.449,4.221-2.133,7.425,0.809,10.504c1.349,0,2.696,0.001,4.042,0c-0.23-4.808,1.148-8.009,2.422-11.312
	C649.949,703.524,649.093,705.36,645.984,704.948z M616.895,713.84c1.947,1.826,4.882,0.146,6.464-0.809
	c-0.723-3.685,1.999-3.926,1.615-7.272c-1.886-0.001-3.771,0-5.657,0.001C619.893,709.835,618.431,711.875,616.895,713.84z
	 M354.259,719.534c1.636-0.56,1.278,0.876,2.425,0.807c0.217-1.361,0.957-2.747,0.806-4.849c-0.312-4.367-3.047-4.737-3.232-8.08
	c-2.227,0.608-2.146-1.087-4.042-0.809C350.833,711.646,352.842,715.293,354.259,719.534z M360.725,722.36
	c0.456,0.487,1.153,0.732,0.809,2.02c3.761,1.72,9.667,1.917,12.121-1.617c-1.117-2.116-3.39-3.073-4.041-5.655
	c-5.103-0.553-3.573-7.741-7.275-9.697C359.07,710.419,363.384,717.775,360.725,722.36z M582.954,713.036
	c2.719,6.721-0.691,11.457,0.003,20.205c3.004,1.712,6.187,3.943,10.505,4.847c3.837,0.801,7.948,0.627,10.506,3.23
	c0.001-1.346,0-2.693,0-4.039c-5.047-1.747-9.75-6.108-7.276-12.932c-1.306,0.5-0.307-1.306-1.615-0.806
	c-2.258,0.84-2.904,3.291-4.445,4.849c-6.209-1.335,0.249-9.855,5.252-8.889c-0.197-2.892,1.475-3.913,1.616-6.468
	c-1.809-0.597-1.241,1.184-2.828,0.809c-2.053-0.506-1.48-3.639-2.83-4.849C589.405,710.87,586.089,711.864,582.954,713.036z
	 M660.535,743.33c-0.869,0.344-0.935,1.49-0.808,2.83c3.549,0.222,4.77,2.773,8.891,2.423c2.292-2.69,4.513-5.455,5.655-9.294
	c-3.232-1.618-7.797-1.899-9.699-4.848c-0.611-9.731,0.187-20.163-6.467-25.455c-0.269-0.002-0.539-0.001-0.808-0.001
	C658.164,720.65,661.862,729.478,660.535,743.33z M344.562,720.747c3.684,2.646,6.948,5.713,7.275,11.716
	c2.823-0.949,2.481-5.061,2.424-8.89c-4.124-2.071-6.042-6.35-6.467-12.121c-0.989-0.356-1.482-1.21-3.233-0.807
	C345.953,712.744,345.642,718.588,344.562,720.747z M334.461,726c1.597-1.5,3.532-2.663,5.251-4.04
	c-0.585-3.819,0.899-5.566,0.808-8.892c-2.332-0.719-2.518-0.719-4.848,0.002c0.314,3.816-0.257,6.747-0.807,9.697
	c-1.884,1.17-3.469-0.23-4.04,0.811C332.591,723.832,332.37,726.072,334.461,726z M372.845,713.873
	c1.709,5.028,5.66,7.811,11.315,8.889C383.716,716.874,377.815,712.587,372.845,713.873z M388.2,719.529
	c4.511,0.199,8.964,0.342,8.888-4.043c-2.653-1.116-5.64-1.901-9.698-1.615C386.943,716.476,387.928,717.645,388.2,719.529z
	 M807.204,719.474c-0.942-0.001-1.886-0.001-2.828,0c-1.943-3.849-8.287-3.296-14.142-3.23c-0.346,1.134-2.186,0.777-3.638,0.808
	c-2.081,2.327-5.454,2.172-7.272,4.85c-1.361,2.012-0.325,5.464-3.23,6.466c-0.138,4.71-2.732,6.964-2.422,12.121
	c3.748,0.247,5.402-1.601,8.889-1.618c-2.025-5.418-2.349-18.862,4.038-11.718c-0.364,4.811,0.864,8.026,1.618,11.718
	c4.396,0.76,4.718-2.557,6.06-4.85c2.283-1.354,6.632-0.641,10.102-0.81c1.56,5.983,0.484,14.604,4.043,18.587
	c1.174-0.444,2.061-1.173,3.231-1.618c0.748-6.427-1.639-11.171-0.002-16.161c1.656-1.473,6.543-2.546,8.891-0.809
	c-1.343-7.01-5.979-10.726-7.275-17.779c-1.308,0.501-0.311-1.307-1.617-0.807C810.583,716.653,808.611,717.781,807.204,719.474z
	 M774.477,725.134c-0.545-2.43,1.351-2.419,0.809-4.85c-4.715-0.133-6.53-3.168-10.507-4.038
	C765.656,721.564,768.85,724.563,774.477,725.134z M599.924,722.732c3.963-0.618,7.055-2.105,8.89-4.85
	C605.401,716.17,597.486,716.001,599.924,722.732z M637.906,726.362c-1.112-2.522-3.521-3.752-4.85-6.059
	c-2.521,0.367-2.883-1.425-5.657-0.807c-2.392,5.31-10.583,4.036-15.353,1.616c-2.075,3.044-5.515,4.725-9.697,5.658
	c0,1.079-0.001,2.155,0,3.233c2.472,1.435,5.6,2.21,7.273,4.443c1.184,4.907,0.401,11.001-2.424,14.143
	c1.566-0.352,1.75,0.677,2.426,1.212c0.001,1.48,0.001,2.964,0.002,4.445c0.991,0.356,1.481,1.211,3.232,0.806
	c-0.129-4.67,5.267-7.34,2.423-12.122c-0.001-2.962-0.001-5.925-0.001-8.888c3.312-4.761,15.43-5.646,19.393-0.811
	c0.99-0.357,1.484-1.212,3.233-0.809C637.906,730.405,637.906,728.385,637.906,726.362z M649.219,729.997
	c2.06-0.305,2.127,1.379,3.234,2.021c0.286,5-3.713,5.714-3.232,10.908c1.617,0,3.234,0,4.85,0.001
	c1.329-7.77,0.094-15.01-0.812-22.626c-1.614-0.001-3.231,0-4.847,0C648.098,724.118,648.668,727.048,649.219,729.997z
	 M309.816,739.74c-0.572-1.853-2.663-2.184-3.233-4.039c-0.99,0.357-1.483,1.212-3.233,0.809
	c-1.638-3.573-1.008-11.011,0.808-13.737c-6.266,1.271-16.573,1.925-12.929,10.508c3.756-0.796,4.512,1.412,4.041,4.848
	C298.509,740.276,306.577,737.594,309.816,739.74z M342.946,725.191c-2.807-0.113-2.682,2.704-4.848,3.233
	c1.382,2.429,5.617,5.267,8.89,3.231C346.029,729.112,344.477,727.164,342.946,725.191z M309.814,726.004
	c-1.24-0.115-3.836-0.252-3.232,3.233c2.687,1.083,2.696,4.847,4.85,6.464c4.496-0.458,5.679,2.401,9.698,2.424
	c0.175-2.333-1.793-2.518-1.617-4.849C314.569,734.956,313.111,726.315,309.814,726.004z M669.424,731.612
	c1.769,0.925,3.314,2.072,6.465,1.616c-0.006-4.577-2.411-6.75-6.465-7.272C669.424,727.841,669.424,729.726,669.424,731.612z
	 M327.593,735.699c1.751,0.403,2.244-0.452,3.233-0.809c-0.302-2.322,0.237-3.803,0.808-5.254c-1.808-1.021-2.641-3.016-5.658-2.827
	C324.114,730.235,326.274,733.162,327.593,735.699z M278.704,735.705c-2.056-1.311-4.075-2.659-5.254-4.849
	c-2.111,1.746-6.205,2.74-8.888,1.619c4.1,4.518,12.693,4.544,16.163,9.693c1.633-3.777,6.951-8.101,4.039-13.737
	C283.492,731.606,281.732,734.289,278.704,735.705z M620.937,737.276c0.008,2.147-0.292,4.603,0.81,5.655
	c2.178-1.997,6.111-2.239,6.465-6.062C626.775,734.366,622.417,736.159,620.937,737.276z M241.936,750.257
	c1.606,1.896,5.875,1.129,8.082,2.424c0.195-6.944,0.869-10.399-0.81-16.164c-1.886,0.001-3.772,0-5.657,0.001
	C244.27,742.355,241.414,744.617,241.936,750.257z M262.944,736.515c-2.559-0.134-4.857-0.008-5.656,1.618
	c3.019,3.178,7.241,5.15,8.083,10.504c2.914,1.938,2.729,6.97,8.083,6.463c0.97-1.99,2.766-3.157,4.848-4.041
	c0.383-3.346-2.338-3.587-1.617-7.272C273.445,740.021,266.489,739.976,262.944,736.515z M807.614,756.644
	c-0.496,1.931-1.149,3.7-0.808,6.467c7.857-4.533,17.597-7.186,23.434-13.74c0.047-1.395-1.663-1.032-1.617-2.424
	c0.547-1.071,3.052-0.184,3.233-1.618c-0.736-1.422-1.812-2.498-3.234-3.233c0.001,1.349,0.001,2.696,0.001,4.043
	c-1.809-0.599-1.24,1.182-2.829,0.809c-2.621-2.094-2.41-7.017-5.253-8.889c-1.348-0.001-2.694,0.001-4.04,0.001
	C817.844,747.167,818.046,757.218,807.614,756.644z M742.964,746.148c0.263,5.396,1.432,9.883,2.427,14.545
	c5.271-0.115,6.465-4.31,10.504-5.659c-0.107-6.627-4.434-9.033-7.275-12.929C744.602,741.322,745.751,745.701,742.964,746.148z
	 M664.579,763.131c1.173-0.445,2.062-1.174,3.232-1.618c-0.002-2.154-0.002-4.31-0.002-6.467c-3.324-0.982-5.872-2.744-9.697-3.229
	C658.734,757.122,664.778,757.002,664.579,763.131z M628.214,768.791c-0.001-2.155-0.001-4.31,0-6.465
	c-4.8-0.855-4.978-6.337-7.274-9.696C619.146,759.365,622.978,766.493,628.214,768.791z M709.832,762.315
	c1.886-0.001,3.771-0.002,5.657-0.001c0.272-1.883,1.256-3.054,0.809-5.658c-1.421-0.732-2.499-1.81-3.233-3.232
	c-1.887,0.002-3.771,0.002-5.655,0.002C706.663,757.943,709.459,758.917,709.832,762.315z M694.479,755.043c0,1.617,0,3.234,0,4.85
	c4.171,1.754,3.158,8.695,8.891,8.889c-0.432-2.183,0.503-2.997,0.808-4.445c-1.735-1.902-2.836-4.438-3.233-7.677
	c-2.269-0.963-4.652-1.813-7.274-2.423C693.717,754.729,693.791,755.193,694.479,755.043z M636.297,772.021
	c3.579-1.27,2.133-7.562,2.423-12.122c-0.933-0.682-2.186-1.046-4.043-0.807C635.76,762.861,634.849,768.621,636.297,772.021z
	 M720.338,760.697c-0.717,1.304-1.089,2.95-1.615,4.443c-0.29,1.1,1.907-0.287,1.615,0.811c-1.31,0.438-0.665,2.836-0.807,4.444
	c2.022,3.097,11.21-0.975,10.507,4.847c-2.134-0.517-1.688,1.544-3.231,1.617c0.71,5.753,1.98,10.948,8.08,11.312
	c2.012-4.724-5.274-10.158-1.617-16.567C729.213,767.715,725.589,763.394,720.338,760.697z M688.824,777.672
	c1.245-0.301,0.494,1.393,2.02,0.808c0.845-5.502,6.203-11.86,1.212-16.162c-2.333-0.093-5.276,0.429-6.467-0.807
	C686.609,766.957,688.371,771.661,688.824,777.672z M676.703,781.713c2.155,0,4.309,0.001,6.465-0.001
	c-3.55-4.529-0.666-15.497-6.467-17.776C675.779,770.66,678.807,776.341,676.703,781.713z M671.853,765.554
	c-1.308,0.497-0.31-1.309-1.618-0.809c-3.072,2.31-4.826,15.64,2.43,14.547C673.26,773.844,671.366,770.889,671.853,765.554z
	 M697.712,773.631c0.435,2.182-0.503,2.997-0.806,4.445c1.211,5.793,2.895,11.112,8.486,12.523c0.381-0.695,1.492-0.661,1.213-2.021
	C701.428,787.496,703.404,770.527,697.712,773.631z M741.354,787.362c1.544-0.072,1.098-2.133,3.231-1.617
	c-0.001-2.155-0.001-4.309-0.001-6.462c-1.956-1.279-3.572-2.894-4.85-4.851c-0.808,0.001-1.616-0.001-2.423,0
	C737.285,780.116,739.708,783.352,741.354,787.362z M543.369,801.935c1.244,0.302,0.492-1.394,2.02-0.808
	c0.643,1.108,2.327,1.174,2.021,3.231c2.133-0.516,1.688,1.544,3.233,1.616c-0.5-1.308,1.308-0.31,0.807-1.616
	c-1.373-2.277-3.252-7.643,2.424-6.465c-0.534,1.88,1.341,1.352,0.808,3.231c2.519-0.983,4.806-2.198,4.04-6.466
	c-3.998-4.892-9.114-8.665-14.548-12.118C546.117,791.181,535.484,797.189,543.369,801.935z M537.712,805.169
	c-1.636-0.559-1.278,0.876-2.424,0.808c0.151,1.735,2.029,1.743,4.042,1.617c0.38,1.369,1.478,2.021,1.616,3.635
	c-3.224,3.914-7.898,6.377-12.12,9.295c0,1.078,0,2.155,0,3.233c1.782-0.167,0.975,2.258,2.425,2.423
	c5.204-5.84,13.582-8.508,15.352-17.78c-1.308,0.501-0.309-1.307-1.616-0.807c-0.99,0.354-1.483,1.21-3.233,0.808
	c-0.374-1.512-1.707-2.063-1.616-4.041c-1.88,0.535-1.353-1.342-3.233-0.807C536.404,804.86,538.211,803.86,537.712,805.169z
	 M521.149,834.263c-1.482,0.001-2.963,0-4.444,0.001c-0.682,2.01-2.199,3.188-2.424,5.657c-3.293,0.207-3.633,3.37-4.04,6.463
	c-2.522-0.365-2.884,1.427-5.657,0.812c-2.828,4.713-5.083,9.999-9.694,12.929c2.127-3.828-0.454-6.819-1.617-9.696
	c-2.719-1.006-6.576-4.449-8.081,0.001c9.897-0.201,3.488,15.908,12.931,16.161c3.691-17.857,22.061-21.038,29.087-35.561
	c-2.002,0.118-2.532-1.238-3.232-2.424c1.58-2.19,0.485-7.055,0.807-10.506c-2.263-0.698-3.332-2.593-6.465-2.424
	C519.14,821.726,523.011,826.875,521.149,834.263z M500.543,835.073c1.416,2.896,1.864,6.756,4.85,8.081
	c1.945-1.019,2.613-3.312,3.231-5.658C505.547,837.225,503.495,832.93,500.543,835.073z M698.532,848.784
	c-1.043,4.124,0.601,9.149-3.232,11.313c1.078,0,2.156,0,3.234,0c3.523,3.211,3.812,9.657,4.849,15.354
	c2.387,2.059,5.136,3.754,7.274,6.059c1.166,7.764-2.346,10.852-2.421,17.374c-1.507,0.381-1.51,2.264-4.041,1.617
	c-3.817-5.02,2.554-9.887,1.613-16.97c-2.379-0.448-2.951-2.704-5.254-3.232c-4.534,6.187-4.215,19.417-2.824,29.093
	c3.893,4.191,9.062,7.099,16.165,8.08c3.491-17.788,1.506-41.049,3.223-60.608c1.816-1.956,2.896-4.647,3.231-8.083
	c-2.278-1.222-5.056-1.947-8.889-1.614c-0.552,2.95-1.121,5.882-0.806,9.698c-1.637-0.56-1.279,0.875-2.426,0.809
	c-3.444-3.145-0.718-9.851-0.001-13.74C703.426,844.528,699.604,844.541,698.532,848.784z M579.342,895.67
	c-2.124-0.164-2.513-2.065-5.253-1.613c0.844,4.003,4.155,5.542,7.275,7.271c5.216-3.087,8.485-11.68,17.776-8.085
	c-2.577-7.14,2.419-11.562,6.463-14.546c0.001-1.885,0-3.771-0.001-5.658c-7.693-0.387-12.435-3.726-18.587-5.653
	C590.768,880.062,579.074,883.833,579.342,895.67z M824.6,869.778c-1.481,2.083-2.163,5.413-1.614,8.486
	c1.336,7.483,11.293,10.941,8.892,21.412c-1.81-0.596-1.241,1.183-2.827,0.809c-2.385-0.445-1.354-4.305-2.832-5.657
	c-0.743,1.079-2.274,2.54-2.424,3.234c-0.851,3.996,1.195,4.581,2.426,6.868c2.162,4.013,7.683,6.714,8.892,11.312
	c1.022,3.886,0.563,5.376,0,8.484c1.877,0.01,2.415,1.358,4.849,0.808c0.848-5.967-3.089-7.146-2.425-12.929
	c1.637,0.558,1.277-0.878,2.424-0.809c1.501,1.464,1.844,4.084,2.425,6.464c4.561,1.499,7.433,4.689,8.892,9.294
	c-3.332,3.964-4.189-2.757-7.273-2.829c0.152,5.659-3.965,6.198-8.889,4.85c1.653,4.812,5.766,7.164,9.697,9.696
	c2.137-1.874,5.51-0.147,8.082-0.001c1.375,3.205,6.805,2.354,6.467,7.272c-1.637-0.558-1.279,0.878-2.426,0.809
	c-3.247-1.602-4.843-4.854-9.695-4.847c2.011,5.933,6.152,9.738,9.698,14.141c0.551,3.918-1.184,5.55-1.615,8.484
	c1.635,0.56,1.276-0.877,2.424-0.809c4.226,1.433,4.819,6.491,10.506,6.464c-0.798-2.299-4.191-10.321,1.615-9.699
	c0.805,2.161,1.658,4.269,1.617,7.275c1.502,0.652,2.973,1.336,4.849,1.614c0-1.077,0-2.154-0.001-3.231
	c-6.787-9.376-12.528-19.798-16.166-32.323c-2.61-4.124-4.261-9.207-5.661-14.545c-4.122-8.537-7.542-17.778-10.507-27.474
	c-3.761-5.804-5.142-13.983-8.893-19.797c0.001-0.674,0-1.349,0-2.021c-0.493-0.046-0.957-0.122-0.809-0.809
	C831.064,869.777,827.832,869.778,824.6,869.778z M581.364,906.177c-0.573-1.585-2.159-2.153-4.041-2.425
	c0.458,4.659,3.993,6.242,3.234,12.122c-1.785,1.582-2.307,4.429-3.637,6.465c-0.943,0-1.885,0-2.827,0
	c2.379,1.931,2.26,6.36,7.274,5.655c7.311-7.772,7.506-22.659,13.733-31.518C588.006,897.196,587.196,904.197,581.364,906.177z
	 M694.502,925.555c1.879,0.533,1.351-1.342,3.23-0.809c0.258-2.975-0.678-7.142,0.81-8.888c-1.583-0.843-1.315-3.536-4.044-3.233
	C694.5,916.937,694.5,921.246,694.502,925.555z M560.357,938.504c-3.023-0.208-3.442-3.024-6.465-3.233
	c-1.73,8.35-0.896,17.824,3.236,22.628c-2.183,0.432-2.999-0.503-4.445-0.807c-4.933,1.666,1.416,14.612-5.251,14.545
	c-0.156-4.153,0.68-9.301-3.235-9.696c0,1.077,0,2.154,0.001,3.232c-1.748,2.024-4.985,2.557-6.464,4.85
	c0.356,1.394,1.723,1.78,2.425,2.829c-1.729,5.472,8.912,9.884,0.809,11.717c-0.491-1.664-1.683-2.628-2.424-4.04
	c-1.781,1.048-4.728,0.93-4.848,3.636c1.902,2.412,5.307,5.465,3.638,10.103c-1.003-1.153-2.242-2.069-4.042-2.424
	c-0.831,0.38-0.834,1.588-2.02,1.615c0.072,5.451,2.082,8.964,5.658,10.908c-0.585,1.528,1.111,0.778,0.809,2.021
	c0.499,1.308-1.308,0.31-0.809,1.618c1.888,1.209,1.523,4.67,4.445,4.848c2.581-1.865,3.745-5.145,5.251-8.084
	c-1.521-0.902-3.867-0.981-3.233-4.04c1.636,0.558,1.278-0.875,2.424-0.808c1.502,0.653,2.973,1.338,4.85,1.616
	c-0.635-2.04,0.502-3.758,0.807-5.656c1.326-8.26,0.611-15.55-4.043-21.012c5.158,0.309,9.558-0.142,11.313-3.234
	c-5.21,0.494-5.458-6.122-4.446-10.505c1.654,1.578,3.51,2.956,6.061,3.636c0,2.021,0,4.041,0,6.061
	c6.188-7.146,9.073-17.593,12.118-27.88c-3.431-3.573-4.868-9.141-8.083-12.932c-0.478-3.571,1.335-4.857,1.614-7.675
	c-0.709-0.232-2.373,0.488-2.424-0.403c-0.249-2.311-1.267-3.851-0.808-6.869c-1.308,0.498-0.309-1.307-1.616-0.808
	C557.107,919.557,555.208,933.105,560.357,938.504z M701.773,923.129c2.924,1.916,10.39,8.17,3.234,10.506
	c-1.226-1.468-3.352-2.034-4.042-4.04c-2.227-0.61-2.146,1.087-4.04,0.809c1.25,2.792,4.062,4.021,4.041,8.082
	c-1.635-0.559-1.276,0.875-2.422,0.808c-1.645-1.455-2.009-4.188-4.446-4.85c0.382,2.27-3.073,0.703-2.827,2.831
	c3.719,1.263,8.218,1.747,7.273,7.676c1.563-0.352,1.748,0.674,2.424,1.212c0.346,1.691-0.495,2.198-1.211,2.826
	c-2.6,0.042-3.636-1.48-6.062-1.613c1.776,3.611,4.894,5.883,6.466,9.697c3.348,1.231,3.659,5.501,7.276,6.464
	c1.554-14.339,4.441-27.342,5.649-42.022c-4.688-0.159-7.624-2.071-11.313-3.232C701.773,919.897,701.773,921.515,701.773,923.129z
	 M575.71,938.502c1.077,0,2.156,0,3.233,0c-0.279-1.897,1.418-1.816,0.807-4.042c-5.376-0.277-6.749-4.562-9.698-7.272
	C571.202,931.696,573.813,934.743,575.71,938.502z M852.896,960.282c0-1.077,0-2.155-0.001-3.23c-4.366-2.638-5.61-8.4-9.698-11.313
	C843.27,953.748,848.889,956.207,852.896,960.282z M524.81,1012.854c4.711,0.013,5.533,0.818,9.697-0.001
	c0.069-1.147-1.366-0.788-0.808-2.424c-0.808,0-1.617,0-2.425,0.001c0.129-1.342,0.061-2.488-0.809-2.83
	c1.453-1.637-0.544-5.961-2.425-6.869C528.112,1005.92,524.227,1007.153,524.81,1012.854z M524.003,1024.168
	c1.766,0.254,1.547,2.496,3.637,2.424c1.629-2.277,1.447-6.365,2.828-8.889c-3.92-0.12-6.808-1.272-9.698-2.424
	C521.625,1018.466,524.085,1020.045,524.003,1024.168z M532.085,1027.399c1.896,0.394,2.512,2.066,4.445,2.424
	c0.729-3.714,2.68-6.209,2.827-10.507c-1.157-0.457-1.965-1.268-2.424-2.422c-0.808,0-1.616,0-2.425,0.001
	C533.802,1020.498,532.511,1023.518,532.085,1027.399z"/>
<text transform="matrix(1 0 0 1 303.9429 363.1021)" fill="#FFFFFF" font-family="'TemplateGothicBold'" font-size="180" letter-spacing="3">makers</text>
<text transform="matrix(1 0 0 1 706.0566 601.6016)" fill="#FFFFFF" font-family="'TemplateGothicBold'" font-size="180">no</text>
<text transform="matrix(1 0 0 1 823.9775 462.8818)" fill="#FFFFFF" font-family="'TemplateGothicBold'" font-size="60">of</text>
</svg>
